<svg width="10" height="6" viewBox="0 0 10 6" fill="none" xmlns="http://www.w3.org/2000/svg">
<path d="M8.64509 0.145001L4.00009 4.795L1.35509 2.145C1.26094 2.05085 1.13324 1.99796 1.00009 1.99796C0.866942 1.99796 0.739245 2.05085 0.645093 2.145C0.550941 2.23915 0.498047 2.36685 0.498047 2.5C0.498047 2.56593 0.511033 2.63121 0.536263 2.69213C0.561493 2.75304 0.598473 2.80838 0.645093 2.855L3.64509 5.855C3.69157 5.90186 3.74687 5.93906 3.8078 5.96445C3.86873 5.98983 3.93409 6.0029 4.00009 6.0029C4.0661 6.0029 4.13145 5.98983 4.19238 5.96445C4.25331 5.93906 4.30861 5.90186 4.35509 5.855L9.35509 0.855001C9.40171 0.808382 9.43869 0.753037 9.46392 0.692126C9.48915 0.631215 9.50214 0.565931 9.50214 0.500001C9.50214 0.434071 9.48915 0.368787 9.46392 0.307876C9.43869 0.246965 9.40171 0.19162 9.35509 0.145001C9.30847 0.0983817 9.25313 0.0614011 9.19222 0.036171C9.13131 0.0109408 9.06602 -0.00204468 9.00009 -0.00204468C8.93416 -0.00204468 8.86888 0.0109408 8.80797 0.036171C8.74706 0.0614011 8.69171 0.0983817 8.64509 0.145001Z" fill="white"/>
</svg>
