<svg width="407" height="344" viewBox="0 0 407 344" fill="none" xmlns="http://www.w3.org/2000/svg">
<g clip-path="url(#clip0_136_731)">
<path d="M217.681 48.318C231.183 38.351 250.192 34.5301 265.066 42.3058C248.321 49.5709 234.688 62.5204 226.578 78.8631C223.473 85.1772 220.678 92.523 214.272 95.4411C210.286 97.257 205.582 96.9063 201.454 95.4402C197.327 93.9738 193.655 91.483 190.035 89.0185L188.949 88.8879C195.392 73.3982 204.179 58.285 217.681 48.318Z" fill="#9EB316"/>
<path d="M264.946 42.6368C251.059 43.0716 237.661 47.868 226.657 56.3449C224.255 58.1277 222.15 60.2776 220.419 62.7156C218.809 65.1449 217.879 67.9606 217.727 70.8703C217.53 73.5805 217.643 76.3754 216.79 78.9906C216.334 80.3227 215.601 81.5434 214.639 82.5727C213.678 83.6019 212.509 84.4164 211.211 84.9627C208.01 86.4082 204.481 86.6183 201.023 86.7039C197.183 86.799 193.193 86.8369 189.7 88.6438C189.277 88.8627 188.962 88.1938 189.384 87.9752C195.46 84.8316 202.561 86.8826 208.947 85.0117C211.926 84.1387 214.661 82.3631 215.857 79.3922C216.904 76.7943 216.79 73.912 216.965 71.1662C217.072 68.3255 217.874 65.5543 219.3 63.0946C220.902 60.5765 222.92 58.3491 225.27 56.5077C230.493 52.278 236.35 48.8953 242.624 46.4835C249.77 43.6912 257.342 42.1411 265.011 41.9002C265.486 41.8855 265.418 42.6221 264.946 42.6368Z" fill="white"/>
<path d="M230.039 53.4069C228.867 51.3689 228.457 48.9807 228.884 46.6688C229.311 44.3569 230.546 42.2719 232.369 40.7862C232.739 40.4868 233.222 41.0472 232.852 41.347C231.152 42.7274 230.001 44.6697 229.608 46.8233C229.215 48.9769 229.605 51.2 230.708 53.0913C230.948 53.5026 230.277 53.8159 230.039 53.4069Z" fill="white"/>
<path d="M217.645 69.4831C222.277 70.7767 227.226 70.2784 231.507 68.0874C231.931 67.87 232.246 68.5388 231.822 68.756C227.364 71.0276 222.212 71.5358 217.396 70.179C216.937 70.0493 217.189 69.3541 217.645 69.4831Z" fill="white"/>
<path d="M249.735 44.6709C250.025 45.5539 250.529 46.3514 251.203 46.9915C251.877 47.6317 252.699 48.0946 253.596 48.3387C254.057 48.4624 253.804 49.1576 253.346 49.0346C252.356 48.7604 251.449 48.248 250.703 47.5424C249.956 46.8367 249.395 45.9592 249.066 44.9865C249.028 44.8974 249.024 44.797 249.057 44.7056C249.09 44.6142 249.156 44.5387 249.243 44.4944C249.332 44.4531 249.433 44.4484 249.525 44.4815C249.618 44.5145 249.693 44.5826 249.735 44.6709Z" fill="white"/>
<path d="M276.859 97.8648C276.569 97.7957 276.279 97.7266 275.985 97.6616C272.085 96.7526 268.118 96.1618 264.123 95.8949C263.814 95.8693 263.501 95.8481 263.192 95.8315C253.56 95.2909 243.91 96.5422 234.734 99.5217C231.084 100.711 227.53 102.175 224.102 103.903C219.369 106.29 214.426 109.254 209.33 109.919C208.799 109.994 208.264 110.036 207.728 110.045L188.874 90.2216C188.854 90.155 188.829 90.0925 188.809 90.0258L188.02 89.2687C188.19 89.1672 188.369 89.0657 188.54 88.9642C188.638 88.9049 188.741 88.8501 188.84 88.7909C188.907 88.7527 188.974 88.7148 189.033 88.6766C189.055 88.6638 189.078 88.6513 189.095 88.6428C189.154 88.6046 189.212 88.5753 189.266 88.5413C190.265 87.9709 191.271 87.4065 192.281 86.8481C192.286 86.8438 192.286 86.8438 192.295 86.8439C200.008 82.6089 208.143 78.9803 216.571 76.7008C216.825 76.6323 217.082 76.5593 217.345 76.4998C221.149 75.4934 225.029 74.7994 228.947 74.4248C231.093 74.2265 233.247 74.1369 235.402 74.1564C240.97 74.2173 246.494 75.153 251.771 76.9292C262.289 80.4715 271.557 87.3361 276.489 97.1141C276.615 97.3643 276.737 97.6103 276.859 97.8648Z" fill="#79C200"/>
<path d="M276.565 98.0594C265.214 90.0512 251.627 85.8204 237.734 85.968C234.742 85.9467 231.766 86.3968 228.915 87.3017C226.165 88.2728 223.727 89.9618 221.852 92.1932C220.062 94.2387 218.468 96.5382 216.212 98.1133C215.045 98.9024 213.724 99.4361 212.336 99.6794C210.948 99.9227 209.525 99.87 208.159 99.5249C204.732 98.7536 201.788 96.798 198.975 94.7856C195.852 92.5512 192.643 90.1809 188.766 89.5225C188.296 89.4427 188.448 88.719 188.917 88.7987C195.662 89.9442 200.095 95.8536 206.321 98.2018C209.226 99.2975 212.48 99.525 215.225 97.8727C217.625 96.4279 219.271 94.0581 221.066 91.9713C222.863 89.7677 225.172 88.0373 227.793 86.9313C230.589 85.8843 233.543 85.3204 236.528 85.2638C243.247 85.0291 249.961 85.8516 256.424 87.7011C263.812 89.771 270.792 93.0886 277.06 97.5104C277.448 97.7842 276.95 98.3314 276.565 98.0594Z" fill="white"/>
<path d="M242.205 85.6574C242.496 83.3246 243.608 81.1714 245.342 79.5823C247.076 77.9932 249.318 77.0717 251.669 76.9823C252.145 76.9658 252.193 77.7038 251.716 77.7203C249.527 77.7995 247.438 78.6581 245.827 80.1412C244.215 81.6242 243.188 83.6341 242.929 85.8079C242.872 86.2802 242.148 86.127 242.205 85.6574Z" fill="white"/>
<path d="M222.623 91.0366C225.541 94.8561 229.793 97.4359 234.531 98.2618C235.001 98.3432 234.849 99.0669 234.38 98.9856C229.452 98.117 225.033 95.4233 222.004 91.442C221.716 91.0623 222.336 90.659 222.623 91.0366Z" fill="white"/>
<path d="M263.194 90.532C262.893 91.4111 262.815 92.3512 262.968 93.2678C263.12 94.1844 263.498 95.0488 264.067 95.7834C264.36 96.1593 263.739 96.5622 263.448 96.1888C262.823 95.3742 262.407 94.4191 262.236 93.4067C262.066 92.3944 262.146 91.3558 262.47 90.3815C262.493 90.2871 262.551 90.205 262.632 90.1517C262.713 90.0985 262.812 90.0782 262.907 90.0949C263.003 90.1153 263.087 90.1727 263.141 90.2545C263.194 90.3364 263.214 90.4361 263.194 90.532Z" fill="white"/>
<path d="M214.118 63.1459H212.657V23.1491C212.657 20.1091 212.058 17.0989 210.894 14.2903C209.73 11.4817 208.023 8.92981 205.872 6.78021C203.721 4.63062 201.167 2.92548 198.357 1.76213C195.546 0.598775 192.534 1.63887e-06 189.492 0H104.693C101.651 -6.5552e-06 98.6382 0.598754 95.8276 1.7621C93.0171 2.92544 90.4633 4.63058 88.3122 6.78017C86.161 8.92975 84.4547 11.4817 83.2905 14.2903C82.1263 17.0988 81.5271 20.109 81.5271 23.149V242.575C81.5271 248.714 83.9678 254.602 88.3121 258.944C92.6565 263.285 98.5488 265.724 104.693 265.724H189.492C195.636 265.724 201.528 263.285 205.872 258.944C210.217 254.602 212.657 248.714 212.657 242.575V91.6163H214.118V63.1459Z" fill="black"/>
<path d="M190.426 6.02259H179.357C179.866 7.2697 180.061 8.62276 179.923 9.96259C179.786 11.3024 179.321 12.5879 178.569 13.7058C177.817 14.8236 176.802 15.7396 175.612 16.373C174.423 17.0063 173.095 17.3376 171.748 17.3377H123.167C121.819 17.3376 120.492 17.0063 119.303 16.373C118.113 15.7396 117.098 14.8236 116.346 13.7058C115.594 12.5879 115.129 11.3024 114.992 9.96259C114.854 8.62276 115.049 7.26968 115.558 6.02258H105.219C100.631 6.02257 96.2305 7.84393 92.9862 11.086C89.7419 14.328 87.9192 18.7251 87.9192 23.31V242.414C87.9192 244.684 88.3667 246.932 89.2361 249.029C90.1055 251.127 91.3797 253.033 92.9862 254.638C94.5926 256.243 96.4997 257.517 98.5986 258.385C100.698 259.254 102.947 259.701 105.219 259.701H190.426C192.698 259.701 194.948 259.254 197.047 258.385C199.146 257.517 201.053 256.243 202.659 254.638C204.266 253.033 205.54 251.127 206.409 249.029C207.279 246.932 207.726 244.684 207.726 242.414V23.31C207.726 18.7251 205.904 14.328 202.659 11.086C199.415 7.84393 195.015 6.02259 190.426 6.02259Z" fill="white"/>
<path d="M149.46 189.317C143.185 189.323 136.971 188.092 131.173 185.695C125.375 183.298 120.107 179.783 115.67 175.349C111.233 170.915 107.715 165.651 105.317 159.857C102.918 154.063 101.687 147.853 101.692 141.583C101.683 132.779 104.115 124.144 108.718 116.636C113.32 109.129 119.914 103.041 127.767 99.0499C133.459 96.1557 139.674 94.4293 146.045 93.9724C152.415 93.5155 158.813 94.3374 164.861 96.3895C175.572 100.037 184.639 107.365 190.449 117.069C196.258 126.772 198.432 138.222 196.583 149.377C194.734 160.533 188.983 170.671 180.353 177.985C171.723 185.299 160.776 189.315 149.46 189.317ZM149.46 95.7216C142.213 95.7003 135.067 97.4132 128.619 100.717C122.982 103.587 118 107.59 113.985 112.475C109.97 117.36 107.009 123.022 105.288 129.105C103.568 135.188 103.124 141.561 103.985 147.824C104.846 154.087 106.993 160.104 110.292 165.498C113.59 170.892 117.969 175.546 123.154 179.168C128.338 182.791 134.216 185.303 140.418 186.547C146.62 187.792 153.013 187.742 159.195 186.4C165.377 185.058 171.214 182.454 176.341 178.75C178.82 176.963 181.112 174.931 183.182 172.684C189.239 166.136 193.253 157.966 194.733 149.173C196.213 140.38 195.095 131.347 191.517 123.179C187.938 115.011 182.053 108.063 174.583 103.187C167.113 98.3099 158.383 95.7157 149.46 95.7216Z" fill="#F77E58"/>
<path d="M45.9546 99.2213C47.2657 99.3856 48.5249 99.8351 49.6434 100.538C50.7619 101.241 51.7125 102.181 52.4282 103.291C53.1439 104.401 53.6074 105.655 53.786 106.963C53.9646 108.271 53.8539 109.603 53.4618 110.864L69.3326 124.074L63.6512 135.67L41.5008 116.7C39.4246 115.901 37.7136 114.369 36.6922 112.394C35.6707 110.419 35.4098 108.138 35.9588 105.984C36.5078 103.829 37.8285 101.951 39.6708 100.705C41.5131 99.4582 43.7489 98.9304 45.9546 99.2213Z" fill="#FFB6B6"/>
<path d="M194.18 154.312C193.862 150.893 192.546 144.747 191.43 142.474C187.997 133.496 165.819 126.118 162.841 125.167L162.086 116.774L131.271 113.461L127.362 124.193L116.31 128.336C115.56 128.616 114.88 129.058 114.321 129.631C113.762 130.204 113.337 130.893 113.075 131.65L103.16 134.514L93.3753 137.34L59.3823 113.405L57.7774 114.453L47.0502 121.448L45.3953 122.527L89.3853 162.187L105.726 158.355L118.015 155.467L119.063 159.722L116.347 174.672C124.216 182.539 134.633 187.346 145.728 188.232C156.823 189.118 167.871 186.025 176.891 179.508L183.871 173.318C188.737 168.061 192.328 161.757 194.368 154.892L194.18 154.312Z" fill="#F7BD58"/>
<path d="M156.36 106.597C167.993 102.749 174.3 90.2056 170.449 78.5814C166.598 66.9572 154.046 60.6538 142.413 64.5025C130.781 68.3511 124.473 80.8944 128.324 92.5186C132.176 104.143 144.728 110.446 156.36 106.597Z" fill="#FFB6B6"/>
<path d="M131.862 60.2745C134.019 57.1964 137.255 55.0418 140.929 54.239C144.561 53.4924 148.342 54.1854 151.472 56.1715C154.877 54.8011 158.547 53.892 162.153 54.3542C165.759 54.8164 169.294 56.8292 170.963 60.1454C171.314 61.0044 171.739 61.831 172.235 62.6155C173.705 64.5754 176.437 64.8297 178.85 64.9238C177.63 65.6348 176.41 66.3457 175.19 67.0566C176.406 67.6227 177.622 68.1889 178.838 68.7552C177.183 69.3865 175.528 70.0178 173.873 70.6491C177.725 74.0325 178.657 80.0537 177.198 85.1019C175.818 89.8815 172.652 93.9049 169.117 97.3495C168.427 94.7792 169.186 91.9927 169.691 89.3317C170.224 86.5201 170.31 83.2324 168.34 81.2474C167.011 79.9083 165.062 79.5038 163.223 79.1789C153.952 77.5403 144.594 76.43 135.196 75.8533C133.938 75.6797 132.657 75.8104 131.46 76.2345C129.173 77.2501 128.254 80.0392 127.591 82.5122C127.274 78.1714 127.527 73.8076 128.346 69.5327C128.973 66.2608 129.96 62.986 131.862 60.2745Z" fill="#2F2E41"/>
<path d="M160.699 211.806H134.474C133.563 211.806 132.69 211.445 132.046 210.801C131.402 210.157 131.04 209.285 131.04 208.374C131.04 207.464 131.402 206.591 132.046 205.948C132.69 205.304 133.563 204.943 134.474 204.943H160.699C161.61 204.943 162.484 205.304 163.128 205.948C163.772 206.591 164.134 207.464 164.134 208.374C164.134 209.285 163.772 210.157 163.128 210.801C162.484 211.445 161.61 211.806 160.699 211.806Z" fill="#F77E58"/>
<path d="M74.6439 28.1567H2.50889C1.84417 28.1556 1.20702 27.891 0.737355 27.421C0.267694 26.9509 0.00390625 26.3138 0.00390625 25.6495C0.00390625 24.9853 0.267694 24.3482 0.737355 23.8781C1.20702 23.408 1.84417 23.1434 2.50889 23.1424H74.6439C75.3093 23.1424 75.9475 23.4065 76.418 23.8767C76.8885 24.3469 77.1529 24.9846 77.1529 25.6495C77.1529 26.3145 76.8885 26.9522 76.418 27.4224C75.9475 27.8925 75.3093 28.1567 74.6439 28.1567Z" fill="#F77E58"/>
<path d="M116.292 44.1696H2.50878C1.84341 44.1696 1.20529 43.9055 0.734801 43.4354C0.264314 42.9652 0 42.3275 0 41.6626C0 40.9978 0.264314 40.3601 0.734801 39.8899C1.20529 39.4198 1.84341 39.1557 2.50878 39.1557H116.292C116.958 39.1557 117.596 39.4198 118.066 39.8899C118.537 40.3601 118.801 40.9978 118.801 41.6626C118.801 42.3275 118.537 42.9652 118.066 43.4354C117.596 43.9055 116.958 44.1696 116.292 44.1696Z" fill="#F77E58"/>
<path d="M94.4267 59.2555H2.50878C1.84341 59.2555 1.20529 58.9913 0.734801 58.5212C0.264314 58.051 0 57.4134 0 56.7485C0 56.0836 0.264314 55.4459 0.734801 54.9758C1.20529 54.5056 1.84341 54.2415 2.50878 54.2415H94.4267C95.092 54.2415 95.7301 54.5056 96.2006 54.9758C96.6711 55.4459 96.9354 56.0836 96.9354 56.7485C96.9354 57.4134 96.6711 58.051 96.2006 58.5212C95.7301 58.9913 95.092 59.2555 94.4267 59.2555Z" fill="#CACACA"/>
<path d="M54.3406 74.2858H2.50878C1.84341 74.2858 1.20529 74.0217 0.734801 73.5516C0.264314 73.0814 0 72.4437 0 71.7788C0 71.1139 0.264314 70.4763 0.734801 70.0061C1.20529 69.536 1.84341 69.2719 2.50878 69.2719H54.3406C55.006 69.2719 55.6441 69.536 56.1146 70.0061C56.5851 70.4763 56.8494 71.1139 56.8494 71.7788C56.8494 72.4437 56.5851 73.0814 56.1146 73.5516C55.6441 74.0217 55.006 74.2858 54.3406 74.2858Z" fill="#CACACA"/>
<path d="M82.9737 89.315H2.50872C1.84404 89.3139 1.20695 89.0494 0.737317 88.5793C0.267684 88.1093 0.00390625 87.4722 0.00390625 86.808C0.00390625 86.1438 0.267684 85.5067 0.737317 85.0367C1.20695 84.5666 1.84404 84.3021 2.50872 84.301H82.9737C83.6383 84.3021 84.2754 84.5666 84.7451 85.0367C85.2147 85.5067 85.4785 86.1438 85.4785 86.808C85.4785 87.4722 85.2147 88.1093 84.7451 88.5793C84.2754 89.0494 83.6383 89.3139 82.9737 89.315Z" fill="#CACACA"/>
<path d="M309.746 334.588L303.281 334.588L300.205 309.668L309.747 309.668L309.746 334.588Z" fill="#9F616A"/>
<path d="M312.29 343.53L287.606 343.529V343.217C287.606 340.67 288.619 338.229 290.42 336.428C292.222 334.628 294.666 333.616 297.214 333.616H297.214L301.723 330.198L310.135 333.617L312.29 333.617L312.29 343.53Z" fill="#2F2E41"/>
<path d="M305.979 217.469L303.128 182.727L300.887 169.687L313.429 166.919L317.591 184.772L313.965 218.433C314.697 219.329 315.143 220.423 315.248 221.574C315.352 222.725 315.11 223.882 314.552 224.894C313.994 225.907 313.146 226.73 312.117 227.257C311.087 227.784 309.923 227.992 308.775 227.853C307.627 227.715 306.546 227.236 305.672 226.479C304.797 225.722 304.17 224.721 303.869 223.605C303.568 222.488 303.609 221.308 303.985 220.214C304.361 219.121 305.055 218.165 305.979 217.469Z" fill="#9F616A"/>
<path d="M275.403 334.588L268.938 334.588L265.862 309.668L275.405 309.668L275.403 334.588Z" fill="#9F616A"/>
<path d="M265.057 225.345L262.191 230.3C262.191 230.3 259.041 231.159 260.07 241.418C261.1 251.677 261.144 312.456 266.126 319.935L267.027 326.358L276.435 327.256L276.673 321.558L287.89 242.386C287.89 242.386 294.497 320.107 299.963 322.009L301.937 328.484L310.558 328.488L310.049 320.857L310.605 224.542L265.057 225.345Z" fill="#2F2E41"/>
<path d="M261.906 229.922L261.707 229.871C267.623 207.76 265.917 179.128 261.74 148.383L261.74 148.255L276.84 134.434H289.953L302.952 142.817C311.356 147.016 313.265 155.907 313.284 155.997L313.297 156.06L308.148 174.021L312.027 225.962L312.031 226.022L312.009 226.078C310.753 229.259 307.389 228.806 303.494 228.281C299.606 227.757 285.276 232.548 280.883 232.548C272.296 232.548 262.519 230.079 261.906 229.922Z" fill="#F7BD58"/>
<path d="M300.23 149.817L305.863 147.369L313.284 156.462L319.3 185.6L298.695 182.48L300.23 149.817Z" fill="#F7BD58"/>
<path d="M213.586 203.548L239.338 180.033L248.288 170.283L258.153 178.501L246.571 192.716L217.711 210.45C217.449 211.576 216.857 212.598 216.01 213.385C215.163 214.172 214.1 214.689 212.957 214.867C211.814 215.046 210.643 214.879 209.596 214.388C208.549 213.897 207.672 213.105 207.079 212.112C206.486 211.12 206.204 209.973 206.268 208.819C206.332 207.664 206.74 206.556 207.44 205.635C208.139 204.714 209.098 204.024 210.193 203.652C211.289 203.28 212.47 203.244 213.586 203.548Z" fill="#9F616A"/>
<path d="M238.777 180.289L245.909 171.034C245.968 170.901 251.886 157.687 257.015 151.946C262.276 146.056 266.419 149.068 266.46 149.101L266.563 149.178L266.849 170.928L247.101 194.508L238.777 180.289Z" fill="#F7BD58"/>
<path d="M293.961 121.416C295.024 114.867 290.574 108.697 284.021 107.635C277.468 106.572 271.294 111.019 270.231 117.567C269.167 124.116 273.617 130.286 280.17 131.348C286.723 132.411 292.898 127.964 293.961 121.416Z" fill="#9F616A"/>
<path d="M271.107 117.708C271.107 117.708 271.01 113.486 270.476 111.617C269.942 109.749 268.873 108.147 269.408 108.147C269.942 108.147 270.209 106.812 270.209 106.812C270.209 106.812 270.743 106.545 271.01 106.812C271.277 107.079 271.545 104.944 271.545 104.944C271.545 104.944 271.812 104.143 272.079 104.677C272.346 105.211 272.346 104.944 272.613 104.143C272.88 103.342 274.216 102.808 274.216 102.808C274.216 102.808 279.291 103.075 280.092 102.008C280.894 100.94 289.976 101.741 291.846 103.075C293.716 104.41 301.996 109.215 300.661 113.219C299.325 117.223 295.48 126.442 294.517 127.366C292.993 128.828 291.939 129.355 284.73 130.788C283.319 131.068 276.118 126.466 276.118 125.666C276.118 124.865 276.986 122.325 275.59 121.977C273.481 121.45 273.244 124.115 272.709 123.314C272.175 122.513 271.107 117.708 271.107 117.708Z" fill="#2F2E41"/>
<path d="M277.947 343.53L253.264 343.529V343.217C253.264 340.67 254.276 338.229 256.078 336.428C257.88 334.628 260.323 333.616 262.871 333.616H262.872L267.381 330.198L275.793 333.617L277.948 333.617L277.947 343.53Z" fill="#2F2E41"/>
<path d="M406.256 344H2.07794C1.88076 344 1.69167 343.922 1.55224 343.782C1.41281 343.643 1.33447 343.454 1.33447 343.257C1.33447 343.06 1.41281 342.871 1.55224 342.732C1.69167 342.592 1.88076 342.514 2.07794 342.514H406.256C406.454 342.514 406.643 342.592 406.782 342.732C406.922 342.871 407 343.06 407 343.257C407 343.454 406.922 343.643 406.782 343.782C406.643 343.922 406.454 344 406.256 344Z" fill="#CACACA"/>
</g>
<defs>
<clipPath id="clip0_136_731">
<rect width="407" height="344" fill="white"/>
</clipPath>
</defs>
</svg>
