<svg width="221" height="60" viewBox="0 0 221 60" fill="none" xmlns="http://www.w3.org/2000/svg">
<rect width="221" height="60" rx="29" fill="#F7BD58"/>
<g clip-path="url(#clip0_134_22)">
<path d="M55.6815 29.539H46.3613C46.1564 29.539 45.9599 29.458 45.815 29.3138C45.6702 29.1696 45.5888 28.974 45.5888 28.77C45.5888 28.5661 45.6702 28.3705 45.815 28.2262C45.9599 28.082 46.1564 28.001 46.3613 28.001H55.6815C55.8864 28.001 56.0829 27.92 56.2277 27.7758C56.3726 27.6316 56.454 27.436 56.454 27.232V22.616C56.454 22.4121 56.3726 22.2165 56.2277 22.0722C56.0829 21.928 55.8864 21.847 55.6815 21.847H26.3185C26.1136 21.847 25.9171 21.928 25.7723 22.0722C25.6274 22.2165 25.546 22.4121 25.546 22.616V27.231C25.546 27.435 25.6274 27.6306 25.7723 27.7748C25.9171 27.919 26.1136 28 26.3185 28H34.9154C35.1203 28 35.3168 28.081 35.4617 28.2252C35.6066 28.3695 35.6879 28.5651 35.6879 28.769C35.6879 28.973 35.6066 29.1686 35.4617 29.3128C35.3168 29.457 35.1203 29.538 34.9154 29.538H26.3185C25.704 29.5372 25.1149 29.2939 24.6803 28.8615C24.2457 28.429 24.0011 27.8427 24 27.231V22.616C24.0008 22.0041 24.2453 21.4176 24.68 20.9849C25.1146 20.5522 25.7038 20.3088 26.3185 20.308H55.6815C56.2969 20.3077 56.8871 20.5507 57.3226 20.9835C57.7581 21.4163 58.0032 22.0034 58.004 22.616V27.231C58.0032 27.8436 57.7581 28.4308 57.3226 28.8636C56.8871 29.2963 56.2969 29.5393 55.6815 29.539Z" fill="black"/>
<path d="M52.5915 48H29.4095C28.7948 47.9992 28.2056 47.7558 27.771 47.3231C27.3363 46.8905 27.0918 46.3039 27.091 45.692V28.769C27.091 28.565 27.1724 28.3695 27.3173 28.2252C27.4621 28.081 27.6586 28 27.8635 28H39.455C39.6599 28 39.8564 28.081 40.0012 28.2252C40.1461 28.3695 40.2275 28.565 40.2275 28.769C40.2275 28.973 40.1461 29.1685 40.0012 29.3128C39.8564 29.457 39.6599 29.538 39.455 29.538H28.636V45.692C28.636 45.896 28.7174 46.0915 28.8623 46.2358C29.0071 46.38 29.2036 46.461 29.4085 46.461H52.5915C52.7964 46.461 52.9929 46.38 53.1377 46.2358C53.2826 46.0915 53.364 45.896 53.364 45.692V29.538H42.546C42.3411 29.538 42.1446 29.457 41.9998 29.3128C41.8549 29.1685 41.7735 28.973 41.7735 28.769C41.7735 28.565 41.8549 28.3695 41.9998 28.2252C42.1446 28.081 42.3411 28 42.546 28H54.1365C54.3414 28 54.5379 28.081 54.6827 28.2252C54.8276 28.3695 54.909 28.565 54.909 28.769V45.692C54.9082 46.3037 54.6638 46.8901 54.2294 47.3228C53.795 47.7554 53.206 47.9989 52.5915 48Z" fill="black"/>
<path d="M44.8645 12.615C44.0984 12.6157 43.3445 12.8055 42.6703 13.1675C41.996 13.5295 41.4225 14.0522 41.001 14.689C40.5584 14.0241 39.9502 13.4848 39.2357 13.1237C38.5212 12.7626 37.7249 12.5921 36.9245 12.6289C36.1241 12.6657 35.3469 12.9084 34.6688 13.3334C33.9908 13.7585 33.435 14.3512 33.0558 15.0539C32.6766 15.7566 32.4869 16.5451 32.5053 17.3426C32.5236 18.14 32.7493 18.9191 33.1604 19.6037C33.5715 20.2884 34.154 20.8552 34.8508 21.2489C35.5477 21.6426 36.3352 21.8497 37.1365 21.85H38.6785V47.231C38.6785 47.435 38.7599 47.6306 38.9047 47.7748C39.0496 47.919 39.2461 48 39.451 48H42.546C42.7509 48 42.9474 47.919 43.0922 47.7748C43.2371 47.6306 43.3185 47.435 43.3185 47.231V21.85H44.8635C46.0932 21.85 47.2725 21.3637 48.142 20.4982C49.0115 19.6326 49.5 18.4586 49.5 17.2345C49.5 16.0104 49.0115 14.8364 48.142 13.9708C47.2725 13.1053 46.0932 12.619 44.8635 12.619L44.8645 12.615ZM34.0455 17.231C34.0455 16.4149 34.3711 15.6323 34.9508 15.0552C35.5305 14.4782 36.3167 14.154 37.1365 14.154C37.9563 14.154 38.7425 14.4782 39.3222 15.0552C39.9018 15.6323 40.2275 16.4149 40.2275 17.231V20.308H37.1365C36.3169 20.3072 35.5312 19.9828 34.9517 19.4059C34.3722 18.829 34.0463 18.0468 34.0455 17.231ZM41.7725 46.462H40.2275V21.85H41.7725V46.462ZM44.8635 20.308H41.7735V17.231C41.7735 16.6224 41.9548 16.0275 42.2944 15.5215C42.6341 15.0155 43.1168 14.6211 43.6816 14.3882C44.2464 14.1553 44.8679 14.0944 45.4675 14.2131C46.0671 14.3319 46.6179 14.6249 47.0502 15.0552C47.4824 15.4856 47.7768 16.0338 47.8961 16.6307C48.0154 17.2276 47.9542 17.8463 47.7202 18.4085C47.4863 18.9708 47.0901 19.4513 46.5818 19.7894C46.0734 20.1275 45.4758 20.308 44.8645 20.308H44.8635ZM52.4408 10.462L51.819 8L51.2012 10.462L48.724 11.077L51.1972 11.692L51.819 14.15L52.4408 11.692L54.914 11.077L52.4408 10.462ZM54.91 14.15L54.6006 15.381L53.364 15.689L54.6006 15.997L54.91 17.228L55.2194 15.997L56.456 15.689L55.2194 15.381L54.91 14.15ZM56.7604 9.231L56.459 8L56.1496 9.231L54.913 9.539L56.1496 9.847L56.459 11.077L56.7604 9.85L57.997 9.542L56.7604 9.231Z" fill="white"/>
</g>
<path d="M73.1758 29.1133C73.1758 28.1628 73.2604 27.1602 73.4297 26.1055C73.599 25.0378 73.8594 23.9896 74.2109 22.9609C74.5755 21.9323 75.0247 20.9492 75.5586 20.0117C76.1055 19.0742 76.75 18.2539 77.4922 17.5508C78.2344 16.8346 79.0742 16.2682 80.0117 15.8516C80.9622 15.4219 82.0169 15.207 83.1758 15.207C84.3607 15.207 85.4414 15.4089 86.418 15.8125C87.3945 16.2031 88.2669 16.7565 89.0352 17.4727C89.8034 18.1758 90.474 19.0156 91.0469 19.9922C91.6328 20.9688 92.1146 22.0365 92.4922 23.1953C92.8698 24.3542 93.1497 25.5846 93.332 26.8867C93.5273 28.1758 93.625 29.4909 93.625 30.832C93.625 32.3164 93.5013 33.7943 93.2539 35.2656C93.0195 36.737 92.6615 38.1497 92.1797 39.5039C91.7109 40.8451 91.1185 42.0951 90.4023 43.2539C89.6862 44.4128 88.8529 45.4154 87.9023 46.2617C86.9518 47.1081 85.8776 47.7721 84.6797 48.2539C83.4948 48.7487 82.1927 48.9961 80.7734 48.9961C79.4453 48.9961 78.2018 48.7878 77.043 48.3711C75.8841 47.9674 74.8229 47.3945 73.8594 46.6523C72.8958 45.8971 72.0365 45.0052 71.2812 43.9766C70.526 42.9349 69.888 41.7956 69.3672 40.5586C68.8594 39.3086 68.4688 37.9805 68.1953 36.5742C67.9219 35.1549 67.7852 33.6966 67.7852 32.1992C67.7852 30.7279 67.9154 29.3607 68.1758 28.0977C68.4492 26.8346 68.8073 25.6693 69.25 24.6016C69.6927 23.5339 70.194 22.5638 70.7539 21.6914C71.3268 20.819 71.9193 20.0378 72.5312 19.3477C73.1432 18.6576 73.7487 18.0586 74.3477 17.5508C74.9466 17.043 75.5 16.6198 76.0078 16.2812L76.8477 16.8477C75.9492 17.5768 75.1354 18.4753 74.4062 19.543C73.6901 20.6107 73.0716 21.8086 72.5508 23.1367C72.043 24.4648 71.6523 25.8971 71.3789 27.4336C71.1055 28.957 70.9688 30.5456 70.9688 32.1992C70.9688 34.9987 71.2422 37.3945 71.7891 39.3867C72.349 41.3789 73.0846 43.013 73.9961 44.2891C74.9076 45.5651 75.9492 46.5026 77.1211 47.1016C78.306 47.7005 79.5234 48 80.7734 48C82.1276 48 83.3841 47.7005 84.543 47.1016C85.7018 46.5026 86.7044 45.5651 87.5508 44.2891C88.4102 43.013 89.0807 41.3789 89.5625 39.3867C90.0573 37.3945 90.3047 34.9987 90.3047 32.1992C90.3047 29.5169 90.0964 27.1862 89.6797 25.207C89.276 23.2279 88.7161 21.5938 88 20.3047C87.2969 19.0026 86.4701 18.0326 85.5195 17.3945C84.569 16.7565 83.5599 16.4375 82.4922 16.4375C81.6589 16.4375 80.9102 16.6263 80.2461 17.0039C79.582 17.3815 78.9961 17.9023 78.4883 18.5664C77.9935 19.2174 77.5638 19.9857 77.1992 20.8711C76.8346 21.7435 76.5352 22.681 76.3008 23.6836C76.0794 24.6862 75.9167 25.7214 75.8125 26.7891C75.7083 27.8438 75.6562 28.8854 75.6562 29.9141C75.6562 31.138 75.6953 32.1732 75.7734 33.0195C75.8516 33.8529 75.9427 34.5299 76.0469 35.0508C76.1641 35.6628 76.3008 36.151 76.457 36.5156L75.3047 36.8086C75.1224 36.6003 74.9076 36.3073 74.6602 35.9297C74.4258 35.5521 74.1979 35.0573 73.9766 34.4453C73.7552 33.8333 73.5664 33.0911 73.4102 32.2188C73.2539 31.3464 73.1758 30.3112 73.1758 29.1133ZM103.488 33.3516C103.124 33.3516 102.714 33.5143 102.258 33.8398C101.815 34.1654 101.366 34.5885 100.91 35.1094C100.454 35.6172 100.012 36.1901 99.582 36.8281C99.1654 37.4661 98.8008 38.0977 98.4883 38.7227C98.4492 39.8685 98.4102 41.1185 98.3711 42.4727C98.3451 43.8268 98.332 45.2721 98.332 46.8086C98.332 47.0039 98.2409 47.1797 98.0586 47.3359C97.8893 47.4792 97.6875 47.6029 97.4531 47.707C97.2188 47.7982 96.9779 47.8698 96.7305 47.9219C96.4831 47.974 96.2812 48 96.125 48C95.9297 48 95.7474 47.9414 95.5781 47.8242C95.4089 47.707 95.3242 47.4466 95.3242 47.043C95.3242 46.8477 95.3438 46.6068 95.3828 46.3203C95.4219 46.0208 95.474 45.7018 95.5391 45.3633C95.5911 45.0247 95.6562 44.6797 95.7344 44.3281C95.7995 43.9635 95.8646 43.625 95.9297 43.3125V33.7617C95.9297 33.5013 95.9362 33.2995 95.9492 33.1562C95.9492 33 95.9688 32.8828 96.0078 32.8047C96.0859 32.6224 96.2227 32.4792 96.418 32.375C96.6133 32.2708 96.8216 32.1927 97.043 32.1406C97.2643 32.0755 97.4792 32.0365 97.6875 32.0234C97.8958 32.0104 98.0586 32.0039 98.1758 32.0039C98.3971 32.0039 98.5469 32.0625 98.625 32.1797C98.7161 32.2969 98.7617 32.5052 98.7617 32.8047C98.7617 32.7656 98.7292 33.0846 98.6641 33.7617C98.612 34.4388 98.5664 35.4089 98.5273 36.6719C98.918 36.0599 99.3411 35.474 99.7969 34.9141C100.253 34.3542 100.728 33.8594 101.223 33.4297C101.717 33 102.225 32.6549 102.746 32.3945C103.28 32.1341 103.82 32.0039 104.367 32.0039C105.344 32.0039 106.06 32.3164 106.516 32.9414C106.971 33.5534 107.199 34.3867 107.199 35.4414C107.199 36.1055 107.154 36.8477 107.062 37.668C106.984 38.4753 106.887 39.3021 106.77 40.1484C106.665 40.9818 106.568 41.8021 106.477 42.6094C106.398 43.4036 106.359 44.1328 106.359 44.7969C106.359 45.6562 106.626 46.0859 107.16 46.0859C107.329 46.0859 107.525 46.0013 107.746 45.832C107.98 45.6497 108.267 45.3177 108.605 44.8359C108.957 44.3542 109.374 43.6966 109.855 42.8633C110.337 42.0169 110.91 40.9297 111.574 39.6016L111.77 39.1914L112.57 39.7969L112.375 40.207C111.594 41.7695 110.897 43.0521 110.285 44.0547C109.686 45.0573 109.139 45.8516 108.645 46.4375C108.15 47.0234 107.688 47.4336 107.258 47.668C106.828 47.8893 106.398 48 105.969 48C105.695 48 105.422 47.9609 105.148 47.8828C104.875 47.8047 104.634 47.668 104.426 47.4727C104.217 47.2773 104.048 47.0169 103.918 46.6914C103.788 46.3529 103.723 45.9232 103.723 45.4023C103.723 44.6211 103.775 43.7422 103.879 42.7656C103.983 41.7891 104.1 40.8125 104.23 39.8359C104.361 38.8594 104.478 37.9414 104.582 37.082C104.686 36.2096 104.738 35.5 104.738 34.9531C104.738 34.4714 104.634 34.0872 104.426 33.8008C104.217 33.5013 103.905 33.3516 103.488 33.3516ZM117.551 45.793C118.007 45.793 118.469 45.6758 118.938 45.4414C119.419 45.207 119.901 44.8424 120.383 44.3477C120.878 43.8529 121.385 43.2148 121.906 42.4336C122.427 41.6393 122.961 40.6953 123.508 39.6016L123.703 39.1914L124.504 39.7969L124.309 40.207C123.605 41.6003 122.902 42.7917 122.199 43.7812C121.509 44.7708 120.826 45.5781 120.148 46.2031C119.484 46.8281 118.827 47.2839 118.176 47.5703C117.525 47.8568 116.9 48 116.301 48C115.454 48 114.699 47.8242 114.035 47.4727C113.371 47.1211 112.811 46.6458 112.355 46.0469C111.9 45.4349 111.555 44.7318 111.32 43.9375C111.073 43.1302 110.949 42.2839 110.949 41.3984C110.949 39.9922 111.145 38.7161 111.535 37.5703C111.913 36.4115 112.421 35.4219 113.059 34.6016C113.71 33.7812 114.445 33.1432 115.266 32.6875C116.086 32.2318 116.939 32.0039 117.824 32.0039C118.723 32.0039 119.406 32.2318 119.875 32.6875C120.357 33.1432 120.598 33.7161 120.598 34.4062C120.598 35.0703 120.409 35.6953 120.031 36.2812C119.654 36.8542 119.139 37.4206 118.488 37.9805C117.85 38.5273 117.108 39.0742 116.262 39.6211C115.415 40.1549 114.523 40.7083 113.586 41.2812C113.677 41.9583 113.833 42.5768 114.055 43.1367C114.276 43.6836 114.556 44.1589 114.895 44.5625C115.233 44.9531 115.624 45.2591 116.066 45.4805C116.509 45.6888 117.004 45.793 117.551 45.793ZM118.156 34.9922C118.156 34.4714 118.013 34.0612 117.727 33.7617C117.453 33.4622 117.115 33.3125 116.711 33.3125C116.372 33.3125 116.014 33.4362 115.637 33.6836C115.259 33.918 114.914 34.3021 114.602 34.8359C114.289 35.3568 114.029 36.0273 113.82 36.8477C113.612 37.668 113.508 38.6641 113.508 39.8359V40.2852C113.951 40.0508 114.439 39.7448 114.973 39.3672C115.52 38.9766 116.027 38.5469 116.496 38.0781C116.965 37.6094 117.355 37.1146 117.668 36.5938C117.993 36.0599 118.156 35.526 118.156 34.9922ZM161.613 49.1914V34.0742C159.296 33.9701 157.062 33.8464 154.914 33.7031C152.766 33.5469 150.793 33.4036 148.996 33.2734V37.6484C148.996 39.4062 148.827 40.9362 148.488 42.2383C148.163 43.5273 147.642 44.6016 146.926 45.4609C146.21 46.3203 145.298 46.9583 144.191 47.375C143.085 47.7917 141.757 48 140.207 48C139.113 48 138.091 47.8372 137.141 47.5117C136.19 47.1732 135.363 46.6979 134.66 46.0859C133.957 45.474 133.404 44.7383 133 43.8789C132.609 43.0195 132.414 42.0625 132.414 41.0078C132.414 39.862 132.674 38.7487 133.195 37.668C133.716 36.5742 134.478 35.6107 135.48 34.7773C136.496 33.944 137.746 33.2734 139.23 32.7656C140.728 32.2578 142.453 32.0039 144.406 32.0039H146.008V28.7227C146.008 27.681 146.027 26.6849 146.066 25.7344C146.118 24.7708 146.242 23.8398 146.438 22.9414C146.633 22.043 146.932 21.1706 147.336 20.3242C147.74 19.4779 148.293 18.638 148.996 17.8047C148.28 18.3385 147.499 18.6966 146.652 18.8789C145.819 19.0612 144.966 19.1523 144.094 19.1523C143.495 19.1523 142.889 19.1263 142.277 19.0742C141.678 19.0091 141.086 18.944 140.5 18.8789C139.914 18.8138 139.341 18.7552 138.781 18.7031C138.234 18.638 137.707 18.6055 137.199 18.6055C136.652 18.6055 136.177 18.6771 135.773 18.8203C135.37 18.9505 135.038 19.1393 134.777 19.3867C134.517 19.6211 134.322 19.8945 134.191 20.207C134.061 20.5195 133.996 20.8516 133.996 21.2031C133.996 21.5547 134.081 21.8997 134.25 22.2383C134.419 22.5638 134.667 22.8633 134.992 23.1367C135.318 23.3971 135.715 23.6055 136.184 23.7617C136.665 23.918 137.206 23.9961 137.805 23.9961C138.352 23.9961 138.846 23.944 139.289 23.8398C139.732 23.7357 140.109 23.6185 140.422 23.4883C140.786 23.3451 141.112 23.1693 141.398 22.9609L141.809 23.8008C141.457 24.0352 141.066 24.237 140.637 24.4062C140.272 24.5495 139.842 24.6862 139.348 24.8164C138.866 24.9336 138.352 24.9922 137.805 24.9922C137.049 24.9922 136.366 24.888 135.754 24.6797C135.142 24.4583 134.615 24.1654 134.172 23.8008C133.742 23.4232 133.404 22.9805 133.156 22.4727C132.922 21.9518 132.805 21.3919 132.805 20.793C132.805 20.0898 132.935 19.4714 133.195 18.9375C133.456 18.3906 133.807 17.9284 134.25 17.5508C134.706 17.1732 135.233 16.8867 135.832 16.6914C136.444 16.4961 137.102 16.3984 137.805 16.3984C138.521 16.3984 139.23 16.444 139.934 16.5352C140.637 16.6263 141.333 16.7305 142.023 16.8477C142.727 16.9518 143.417 17.0495 144.094 17.1406C144.784 17.2318 145.461 17.2773 146.125 17.2773C146.789 17.2773 147.44 17.2188 148.078 17.1016C148.716 16.9714 149.361 16.737 150.012 16.3984L150.812 17.0039C150.513 17.3945 150.253 17.8307 150.031 18.3125C149.81 18.7943 149.621 19.3802 149.465 20.0703C149.309 20.7604 149.191 21.5872 149.113 22.5508C149.035 23.5013 148.996 24.6536 148.996 26.0078V32.0039H161.613V26.3984C161.613 25.1354 161.646 24.0156 161.711 23.0391C161.776 22.0495 161.867 21.1706 161.984 20.4023C162.115 19.6211 162.271 18.931 162.453 18.332C162.635 17.7201 162.844 17.1667 163.078 16.6719C163.326 16.1771 163.592 15.7148 163.879 15.2852C164.165 14.8555 164.471 14.4258 164.797 13.9961L165.598 14.6016C165.402 15.0052 165.227 15.4479 165.07 15.9297C164.927 16.3984 164.803 17.0104 164.699 17.7656C164.608 18.5078 164.536 19.4453 164.484 20.5781C164.432 21.6979 164.406 23.1042 164.406 24.7969V32.0039H167.805L167.199 34.1914C166.743 34.1914 166.275 34.1914 165.793 34.1914C165.324 34.1914 164.862 34.1784 164.406 34.1523V48.8008L161.613 49.1914ZM140.598 47.0039C141.496 47.0039 142.284 46.8802 142.961 46.6328C143.638 46.3854 144.198 45.9753 144.641 45.4023C145.096 44.8294 145.435 44.0742 145.656 43.1367C145.891 42.1992 146.008 41.0339 146.008 39.6406V33.0781C145.604 33.0521 145.207 33.0326 144.816 33.0195C144.439 33.0065 144.1 33 143.801 33C142.668 33 141.665 33.1237 140.793 33.3711C139.921 33.6055 139.159 33.9245 138.508 34.3281C137.857 34.7318 137.303 35.2005 136.848 35.7344C136.405 36.2682 136.047 36.8346 135.773 37.4336C135.5 38.0195 135.305 38.625 135.188 39.25C135.07 39.862 135.012 40.4479 135.012 41.0078C135.012 42.1016 135.181 43.0326 135.52 43.8008C135.858 44.556 136.294 45.1745 136.828 45.6562C137.362 46.125 137.961 46.4701 138.625 46.6914C139.289 46.8997 139.947 47.0039 140.598 47.0039ZM177.219 43.7617C177.154 43.8659 177.056 44.0482 176.926 44.3086C176.809 44.556 176.652 44.8359 176.457 45.1484C176.275 45.4609 176.053 45.7865 175.793 46.125C175.546 46.4635 175.259 46.7695 174.934 47.043C174.608 47.3164 174.243 47.5443 173.84 47.7266C173.449 47.9089 173.013 48 172.531 48C172.154 48 171.763 47.9219 171.359 47.7656C170.956 47.6094 170.578 47.3229 170.227 46.9062C169.888 46.4896 169.608 45.9232 169.387 45.207C169.165 44.4779 169.055 43.5404 169.055 42.3945C169.055 41.3008 169.094 40.207 169.172 39.1133C169.25 38.0065 169.341 36.9974 169.445 36.0859C169.562 35.1745 169.673 34.4128 169.777 33.8008C169.882 33.1888 169.96 32.8177 170.012 32.6875C170.064 32.5703 170.168 32.4661 170.324 32.375C170.48 32.2839 170.656 32.2122 170.852 32.1602C171.06 32.1081 171.268 32.069 171.477 32.043C171.698 32.0169 171.887 32.0039 172.043 32.0039C172.251 32.0039 172.414 32.056 172.531 32.1602C172.661 32.2643 172.727 32.4401 172.727 32.6875C172.727 32.8047 172.701 33.0391 172.648 33.3906C172.609 33.7292 172.557 34.1458 172.492 34.6406C172.427 35.1354 172.355 35.6823 172.277 36.2812C172.212 36.8802 172.147 37.4922 172.082 38.1172C172.017 38.7292 171.958 39.3411 171.906 39.9531C171.867 40.5521 171.848 41.099 171.848 41.5938C171.848 43.013 171.997 44.0677 172.297 44.7578C172.609 45.4479 173.117 45.793 173.82 45.793C174.419 45.793 175.025 45.3568 175.637 44.4844C176.262 43.612 176.802 42.3424 177.258 40.6758C177.323 39.9727 177.382 39.224 177.434 38.4297C177.499 37.6224 177.557 36.8607 177.609 36.1445C177.661 35.4154 177.707 34.7643 177.746 34.1914C177.798 33.6185 177.844 33.2083 177.883 32.9609C177.922 32.7786 178.026 32.6289 178.195 32.5117C178.365 32.3815 178.553 32.2839 178.762 32.2188C178.983 32.1406 179.191 32.0885 179.387 32.0625C179.595 32.0234 179.751 32.0039 179.855 32.0039C180.077 32.0039 180.227 32.056 180.305 32.1602C180.396 32.2513 180.441 32.401 180.441 32.6094C180.441 32.7917 180.422 33.1432 180.383 33.6641C180.357 34.1719 180.318 34.7708 180.266 35.4609C180.227 36.138 180.181 36.8672 180.129 37.6484C180.077 38.4297 180.025 39.1849 179.973 39.9141C179.934 40.6302 179.895 41.2812 179.855 41.8672C179.829 42.4531 179.816 42.8958 179.816 43.1953C179.816 44.0807 179.862 44.7773 179.953 45.2852C180.057 45.793 180.279 46.0469 180.617 46.0469C180.865 46.0469 181.132 45.8906 181.418 45.5781C181.717 45.2526 182.036 44.8034 182.375 44.2305C182.727 43.6576 183.104 42.9805 183.508 42.1992C183.911 41.4049 184.348 40.5391 184.816 39.6016L185.012 39.1914L185.812 39.7969L185.617 40.207C184.992 41.444 184.439 42.5508 183.957 43.5273C183.488 44.4909 183.039 45.3047 182.609 45.9688C182.18 46.6328 181.743 47.1406 181.301 47.4922C180.858 47.8307 180.363 48 179.816 48C179.309 48 178.885 47.9023 178.547 47.707C178.221 47.5117 177.961 47.2318 177.766 46.8672C177.57 46.5026 177.427 46.0599 177.336 45.5391C177.258 45.0182 177.219 44.4258 177.219 43.7617ZM187.59 37.6094C187.603 39.1068 187.701 40.4414 187.883 41.6133C188.065 42.7721 188.319 43.7552 188.645 44.5625C188.97 45.3568 189.367 45.9622 189.836 46.3789C190.305 46.7956 190.839 47.0039 191.438 47.0039C192.258 47.0039 192.935 46.6784 193.469 46.0273C194.016 45.3633 194.419 44.4583 194.68 43.3125C194.003 43.1693 193.358 42.9023 192.746 42.5117C192.134 42.1211 191.594 41.6393 191.125 41.0664C190.656 40.4805 190.279 39.8099 189.992 39.0547C189.719 38.2995 189.582 37.4792 189.582 36.5938C189.582 35.8646 189.673 35.2266 189.855 34.6797C190.051 34.1198 190.305 33.6576 190.617 33.293C190.93 32.9154 191.288 32.6354 191.691 32.4531C192.108 32.2578 192.544 32.1602 193 32.1602C193.534 32.1602 194.081 32.3164 194.641 32.6289C195.201 32.9284 195.708 33.3841 196.164 33.9961C196.62 34.5951 196.991 35.3503 197.277 36.2617C197.564 37.1732 197.707 38.2344 197.707 39.4453C197.707 39.901 197.681 40.3503 197.629 40.793C197.577 41.2357 197.499 41.6654 197.395 42.082C198.02 41.8997 198.586 41.6068 199.094 41.2031C199.615 40.7995 200.044 40.2656 200.383 39.6016L200.598 39.1914L201.398 39.7969L201.184 40.207C200.741 41.0924 200.148 41.8021 199.406 42.3359C198.677 42.8568 197.883 43.1953 197.023 43.3516C196.789 44.0156 196.483 44.6341 196.105 45.207C195.741 45.7669 195.318 46.2552 194.836 46.6719C194.367 47.0885 193.833 47.4141 193.234 47.6484C192.648 47.8828 192.01 48 191.32 48C190.344 48 189.445 47.7917 188.625 47.375C187.818 46.9583 187.115 46.2812 186.516 45.3438C185.93 44.4062 185.467 43.1758 185.129 41.6523C184.803 40.1159 184.641 38.2344 184.641 36.0078C184.641 32.9089 184.784 30.2721 185.07 28.0977C185.357 25.9102 185.734 24.1328 186.203 22.7656C186.672 21.3854 187.212 20.3828 187.824 19.7578C188.436 19.1198 189.068 18.8008 189.719 18.8008C190.122 18.8008 190.454 18.9635 190.715 19.2891C190.975 19.6016 191.105 20.1745 191.105 21.0078C191.105 21.6589 191.053 22.401 190.949 23.2344C190.845 24.0677 190.708 24.9596 190.539 25.9102C190.37 26.8607 190.168 27.8503 189.934 28.8789C189.699 29.8945 189.452 30.9102 189.191 31.9258C188.931 32.9284 188.664 33.918 188.391 34.8945C188.117 35.8581 187.85 36.763 187.59 37.6094ZM190.871 36.4375C190.871 37.2057 190.975 37.9154 191.184 38.5664C191.405 39.2044 191.698 39.7708 192.062 40.2656C192.427 40.7474 192.85 41.151 193.332 41.4766C193.814 41.8021 194.328 42.0299 194.875 42.1602C194.94 41.7956 194.979 41.418 194.992 41.0273C195.018 40.6237 195.031 40.2135 195.031 39.7969C195.031 38.8724 194.96 38.0391 194.816 37.2969C194.673 36.5417 194.484 35.9036 194.25 35.3828C194.016 34.849 193.742 34.4388 193.43 34.1523C193.117 33.8659 192.798 33.7227 192.473 33.7227C192.03 33.7227 191.652 33.9635 191.34 34.4453C191.027 34.9141 190.871 35.5781 190.871 36.4375ZM189.836 21.4766C189.836 21.2031 189.803 20.9883 189.738 20.832C189.673 20.6758 189.569 20.5977 189.426 20.5977C189.283 20.5977 189.139 20.7995 188.996 21.2031C188.853 21.6068 188.71 22.1536 188.566 22.8438C188.436 23.5339 188.312 24.3346 188.195 25.2461C188.091 26.1576 187.993 27.1276 187.902 28.1562C187.811 29.1719 187.74 30.2135 187.688 31.2812C187.635 32.349 187.603 33.3776 187.59 34.3672C187.902 33.2214 188.195 32.0495 188.469 30.8516C188.742 29.6406 188.977 28.4688 189.172 27.3359C189.38 26.2031 189.543 25.1354 189.66 24.1328C189.777 23.1172 189.836 22.2318 189.836 21.4766Z" fill="black"/>
<defs>
<clipPath id="clip0_134_22">
<rect width="34" height="40" fill="white" transform="translate(24 8)"/>
</clipPath>
</defs>
</svg>
