<svg xmlns="http://www.w3.org/2000/svg" xmlns:xlink="http://www.w3.org/1999/xlink" viewBox="0 0 177.4 41.19"><defs><style>.cls-1{fill:none;}.cls-2{clip-path:url(#clip-path);}.cls-3{fill:#fff;}.cls-4{fill:#f7bd58;}</style><clipPath id="clip-path"><rect class="cls-1" width="34" height="40"/></clipPath></defs><g id="Layer_2" data-name="Layer 2"><g id="Layer_1-2" data-name="Layer 1"><g class="cls-2"><path class="cls-3" d="M31.68,21.54H22.36a.77.77,0,0,1,0-1.54h9.32a.75.75,0,0,0,.77-.77V14.62a.75.75,0,0,0-.77-.77H2.32a.8.8,0,0,0-.55.22.8.8,0,0,0-.22.55v4.61a.76.76,0,0,0,.22.54.76.76,0,0,0,.55.23h8.6a.77.77,0,0,1,0,1.54H2.32A2.32,2.32,0,0,1,0,19.23V14.62A2.34,2.34,0,0,1,.68,13a2.31,2.31,0,0,1,1.64-.67H31.68A2.3,2.3,0,0,1,34,14.62v4.61a2.32,2.32,0,0,1-2.32,2.31Z"/><path class="cls-3" d="M28.59,40H5.41a2.32,2.32,0,0,1-2.32-2.31V20.77A.79.79,0,0,1,3.86,20h11.6a.77.77,0,0,1,0,1.54H4.64V37.69a.75.75,0,0,0,.77.77H28.59a.75.75,0,0,0,.77-.77V21.54H18.55a.77.77,0,1,1,0-1.54H30.14a.79.79,0,0,1,.77.77V37.69a2.32,2.32,0,0,1-.68,1.63A2.28,2.28,0,0,1,28.59,40Z"/><path class="cls-4" d="M20.86,4.61a4.78,4.78,0,0,0-2.19.56A4.6,4.6,0,0,0,17,6.69a4.59,4.59,0,0,0-1.76-1.57,4.65,4.65,0,0,0-2.32-.49,4.72,4.72,0,0,0-2.25.7A4.66,4.66,0,0,0,9.06,7.05a4.61,4.61,0,0,0-.55,2.29,4.61,4.61,0,0,0,2.34,3.91,4.72,4.72,0,0,0,2.29.6h1.54V39.23a.76.76,0,0,0,.22.54.78.78,0,0,0,.55.23h3.1a.74.74,0,0,0,.54-.23.73.73,0,0,0,.23-.54V13.85h1.54a4.67,4.67,0,0,0,3.28-1.35,4.6,4.6,0,0,0,0-6.53,4.67,4.67,0,0,0-3.28-1.35ZM10.05,9.23A3,3,0,0,1,11,7.06a3.08,3.08,0,0,1,4.37,0,3,3,0,0,1,.91,2.17v3.08H13.14a3.14,3.14,0,0,1-2.19-.9A3.07,3.07,0,0,1,10.05,9.23Zm7.72,29.23H16.23V13.85h1.54Zm3.09-26.15H17.77V9.23a3.07,3.07,0,0,1,.52-1.71,3.13,3.13,0,0,1,3.18-1.31,3,3,0,0,1,1.58.85,3.08,3.08,0,0,1-2.19,5.25Zm7.58-9.85L27.82,0,27.2,2.46l-2.48.62,2.48.61.62,2.46.62-2.46,2.47-.61Zm2.47,3.69L30.6,7.38l-1.24.31L30.6,8l.31,1.23L31.22,8l1.24-.31-1.24-.31Zm1.85-4.92L32.46,0l-.31,1.23-1.24.31,1.24.31.31,1.23.3-1.23L34,1.54Z"/></g><path class="cls-3" d="M49.18,21.11a18.77,18.77,0,0,1,.25-3A19.08,19.08,0,0,1,50.21,15a18.31,18.31,0,0,1,1.35-3,11,11,0,0,1,1.93-2.46A8.61,8.61,0,0,1,56,7.85a7.61,7.61,0,0,1,3.17-.64A8.43,8.43,0,0,1,65,9.47a11.49,11.49,0,0,1,2,2.52,16.15,16.15,0,0,1,1.44,3.21,20.74,20.74,0,0,1,.84,3.69,25.65,25.65,0,0,1,.29,3.94,26.52,26.52,0,0,1-.37,4.44,23.4,23.4,0,0,1-1.07,4.23,18.49,18.49,0,0,1-1.78,3.75,13.19,13.19,0,0,1-2.5,3,10.79,10.79,0,0,1-3.22,2,10,10,0,0,1-3.91.75A10.9,10.9,0,0,1,53,40.37a11.13,11.13,0,0,1-3.18-1.72A13.64,13.64,0,0,1,47.28,36a17.48,17.48,0,0,1-1.91-3.42,21,21,0,0,1-1.17-4,22.49,22.49,0,0,1-.41-4.37,19.3,19.3,0,0,1,1.46-7.6,18,18,0,0,1,1.5-2.91,21.69,21.69,0,0,1,1.78-2.34A18.35,18.35,0,0,1,52,8.28l.84.57a12.7,12.7,0,0,0-2.44,2.69,18.47,18.47,0,0,0-1.86,3.6,23,23,0,0,0-1.17,4.29A27.4,27.4,0,0,0,47,24.2a27.36,27.36,0,0,0,.82,7.19A15.57,15.57,0,0,0,50,36.29a8.76,8.76,0,0,0,3.12,2.81,8.09,8.09,0,0,0,7.42,0,8.09,8.09,0,0,0,3-2.81,15.09,15.09,0,0,0,2-4.9,30,30,0,0,0,.74-7.19,34.1,34.1,0,0,0-.62-7A17.05,17.05,0,0,0,64,12.3a8,8,0,0,0-2.48-2.91,5.39,5.39,0,0,0-3-1A4.51,4.51,0,0,0,56.25,9a5.8,5.8,0,0,0-1.76,1.57,9.91,9.91,0,0,0-1.29,2.3,17.78,17.78,0,0,0-.9,2.81,28,28,0,0,0-.49,3.11c-.1,1.05-.15,2.1-.15,3.12,0,1.23,0,2.26.11,3.11a19.2,19.2,0,0,0,.28,2,6.83,6.83,0,0,0,.41,1.47l-1.16.29a9,9,0,0,1-.64-.88A8.36,8.36,0,0,1,50,26.45a14.65,14.65,0,0,1-.57-2.23A17.56,17.56,0,0,1,49.18,21.11Zm30.31,4.24a2.14,2.14,0,0,0-1.23.49,9.18,9.18,0,0,0-1.35,1.27,15.27,15.27,0,0,0-1.33,1.72,20.71,20.71,0,0,0-1.09,1.89q-.06,1.73-.12,3.75c0,1.36,0,2.8,0,4.34a.71.71,0,0,1-.27.53,2.74,2.74,0,0,1-.61.37,4.27,4.27,0,0,1-.72.21,3.29,3.29,0,0,1-.61.08.92.92,0,0,1-.54-.18c-.17-.11-.26-.37-.26-.78a5.46,5.46,0,0,1,.06-.72c0-.3.09-.62.16-1s.12-.68.19-1,.13-.71.2-1V25.76c0-.26,0-.46,0-.6a.8.8,0,0,1,.47-.78,2.22,2.22,0,0,1,.62-.24,3.89,3.89,0,0,1,.65-.12l.49,0a.47.47,0,0,1,.44.18,1,1,0,0,1,.14.62s0,.28-.1,1-.09,1.65-.13,2.91a18.27,18.27,0,0,1,1.27-1.76,11.81,11.81,0,0,1,1.42-1.48,7.53,7.53,0,0,1,1.53-1A3.64,3.64,0,0,1,80.37,24a2.51,2.51,0,0,1,2.15.94,4.14,4.14,0,0,1,.68,2.5,20.65,20.65,0,0,1-.14,2.23c-.08.81-.17,1.63-.29,2.48s-.2,1.65-.29,2.46a21.85,21.85,0,0,0-.12,2.19c0,.86.27,1.29.8,1.29a1.06,1.06,0,0,0,.59-.26,4.92,4.92,0,0,0,.86-1c.35-.49.76-1.14,1.25-2s1-1.93,1.71-3.26l.2-.41.8.61-.19.41c-.79,1.56-1.48,2.84-2.09,3.84a17.82,17.82,0,0,1-1.65,2.39,5.3,5.3,0,0,1-1.38,1.23A2.81,2.81,0,0,1,82,40a2.91,2.91,0,0,1-.82-.12,1.67,1.67,0,0,1-.72-.41,2,2,0,0,1-.51-.78,3.64,3.64,0,0,1-.2-1.29,23.5,23.5,0,0,1,.16-2.63c.1-1,.22-2,.35-2.93s.25-1.9.35-2.76A17.52,17.52,0,0,0,80.74,27a2,2,0,0,0-.31-1.15A1.08,1.08,0,0,0,79.49,25.35ZM93.55,37.79a3,3,0,0,0,1.39-.35,5.26,5.26,0,0,0,1.44-1.09,12.61,12.61,0,0,0,1.53-1.92,27.76,27.76,0,0,0,1.6-2.83l.19-.41.8.61-.19.41a28.09,28.09,0,0,1-2.11,3.57,14.46,14.46,0,0,1-2,2.42,7.19,7.19,0,0,1-2,1.37A4.64,4.64,0,0,1,92.3,40,4.74,4.74,0,0,1,90,39.47a4.91,4.91,0,0,1-1.68-1.42,6.6,6.6,0,0,1-1-2.11A8.58,8.58,0,0,1,87,33.4a11.57,11.57,0,0,1,.59-3.83,9.45,9.45,0,0,1,1.52-3,7.34,7.34,0,0,1,2.21-1.91A5.14,5.14,0,0,1,93.82,24a2.83,2.83,0,0,1,2.06.69,2.26,2.26,0,0,1,.72,1.72A3.37,3.37,0,0,1,96,28.28,8.49,8.49,0,0,1,94.49,30a20.51,20.51,0,0,1-2.23,1.64l-2.67,1.66a7.92,7.92,0,0,0,.46,1.86,5.79,5.79,0,0,0,.84,1.42,3.74,3.74,0,0,0,1.18.92A3.38,3.38,0,0,0,93.55,37.79ZM94.16,27a1.74,1.74,0,0,0-.43-1.23,1.34,1.34,0,0,0-1-.45,2,2,0,0,0-1.07.37,3.23,3.23,0,0,0-1,1.16,7.66,7.66,0,0,0-.78,2,12.2,12.2,0,0,0-.31,3v.45A16,16,0,0,0,91,31.37a11.86,11.86,0,0,0,1.53-1.29,8.06,8.06,0,0,0,1.17-1.49A3.08,3.08,0,0,0,94.16,27Zm43.45,14.2V26.07c-2.31-.1-4.55-.22-6.7-.37L125,25.27v4.38a18.28,18.28,0,0,1-.51,4.59,8.14,8.14,0,0,1-1.56,3.22,6.5,6.5,0,0,1-2.74,1.92,11.47,11.47,0,0,1-4,.62,9.28,9.28,0,0,1-3.07-.49,7.66,7.66,0,0,1-2.48-1.42A6.7,6.7,0,0,1,109,35.88a6.88,6.88,0,0,1-.59-2.87,7.6,7.6,0,0,1,.78-3.34,8.55,8.55,0,0,1,2.29-2.89,11.75,11.75,0,0,1,3.75-2,16,16,0,0,1,5.18-.77H122V20.72c0-1,0-2,.06-3a16.89,16.89,0,0,1,.37-2.79,11.45,11.45,0,0,1,.9-2.62A11.75,11.75,0,0,1,125,9.8a5.92,5.92,0,0,1-2.35,1.08,12,12,0,0,1-2.56.27c-.59,0-1.2,0-1.81-.08l-1.78-.19-1.72-.18a14.49,14.49,0,0,0-1.58-.09,4.4,4.4,0,0,0-1.43.21,2.53,2.53,0,0,0-1,.57,2.18,2.18,0,0,0-.59.82,2.53,2.53,0,0,0-.19,1,2.31,2.31,0,0,0,.25,1,3.22,3.22,0,0,0,.74.9,3.72,3.72,0,0,0,1.19.62,5.22,5.22,0,0,0,1.63.24,6.71,6.71,0,0,0,1.48-.16,6.93,6.93,0,0,0,1.13-.35,4.17,4.17,0,0,0,1-.53l.41.84a5.87,5.87,0,0,1-1.17.61,13.27,13.27,0,0,1-1.29.41,6.92,6.92,0,0,1-1.54.17,6.36,6.36,0,0,1-2.06-.31,5.14,5.14,0,0,1-1.58-.88,4.09,4.09,0,0,1-1-1.33,4,4,0,0,1-.35-1.68,4.16,4.16,0,0,1,.38-1.85,4.32,4.32,0,0,1,1.06-1.39,4.83,4.83,0,0,1,1.58-.86,6.63,6.63,0,0,1,2-.29,15,15,0,0,1,2.12.14c.71.09,1.4.19,2.09.31l2.07.29a15.75,15.75,0,0,0,2,.14,10.59,10.59,0,0,0,2-.18A7.27,7.27,0,0,0,126,8.4l.8.6a6.77,6.77,0,0,0-.78,1.31,9.34,9.34,0,0,0-.57,1.76,19.44,19.44,0,0,0-.35,2.48c-.07.95-.11,2.1-.11,3.46v6h12.61V18.4c0-1.26,0-2.38.1-3.36s.16-1.87.27-2.64a19,19,0,0,1,.47-2.07,11.05,11.05,0,0,1,.63-1.66,12.17,12.17,0,0,1,.8-1.38c.28-.43.59-.86.92-1.29l.8.6a10.84,10.84,0,0,0-.53,1.33,12.05,12.05,0,0,0-.37,1.84c-.09.74-.16,1.68-.22,2.81s-.07,2.52-.07,4.22V24h3.39l-.6,2.19h-1.41c-.47,0-.93,0-1.38,0V40.8ZM116.6,39a6.8,6.8,0,0,0,2.36-.37,3.55,3.55,0,0,0,1.68-1.23,5.77,5.77,0,0,0,1-2.26,15,15,0,0,0,.35-3.5V25.08L120.82,25l-1,0a11,11,0,0,0-3,.37,8.46,8.46,0,0,0-2.28,1,6.92,6.92,0,0,0-1.66,1.4,7.73,7.73,0,0,0-1.08,1.7,7.87,7.87,0,0,0-.58,1.82A9.14,9.14,0,0,0,111,33a6.88,6.88,0,0,0,.51,2.79,5.46,5.46,0,0,0,1.31,1.86,5.26,5.26,0,0,0,1.79,1A6.59,6.59,0,0,0,116.6,39Zm36.62-3.24c-.07.11-.16.29-.29.55s-.28.53-.47.84a10,10,0,0,1-.67,1,5,5,0,0,1-1.95,1.61,3.1,3.1,0,0,1-1.31.27,3.33,3.33,0,0,1-1.17-.23,3,3,0,0,1-1.13-.86,5.09,5.09,0,0,1-.84-1.7,9.6,9.6,0,0,1-.34-2.82c0-1.09,0-2.18.12-3.28s.17-2.11.28-3,.22-1.68.33-2.29a8,8,0,0,1,.23-1.11.71.71,0,0,1,.31-.31,1.91,1.91,0,0,1,.53-.22l.63-.12c.22,0,.41,0,.56,0a.74.74,0,0,1,.49.16.64.64,0,0,1,.2.53,6.89,6.89,0,0,1-.08.7c0,.34-.09.76-.16,1.25s-.14,1-.21,1.64-.13,1.21-.2,1.84-.12,1.22-.17,1.83-.06,1.15-.06,1.64a8.41,8.41,0,0,0,.45,3.17,1.57,1.57,0,0,0,1.52,1c.6,0,1.2-.43,1.82-1.31a12.35,12.35,0,0,0,1.62-3.8c.06-.71.12-1.46.17-2.25s.13-1.57.18-2.29.1-1.38.14-1.95.09-1,.13-1.23a.75.75,0,0,1,.32-.45,1.66,1.66,0,0,1,.56-.29,3.24,3.24,0,0,1,.63-.16,2.73,2.73,0,0,1,.46-.06.53.53,0,0,1,.45.16.58.58,0,0,1,.14.45q0,.27-.06,1.05c0,.51-.06,1.11-.11,1.8s-.09,1.41-.14,2.19-.11,1.53-.16,2.26-.07,1.37-.12,2,0,1,0,1.33a12.76,12.76,0,0,0,.13,2.09c.11.5.33.76.67.76a1.18,1.18,0,0,0,.8-.47,8.53,8.53,0,0,0,1-1.35c.35-.57.72-1.25,1.13-2l1.31-2.6.19-.41.8.61-.19.41c-.63,1.23-1.18,2.34-1.66,3.32A24.48,24.48,0,0,1,158.61,38a6.39,6.39,0,0,1-1.31,1.52,2.37,2.37,0,0,1-1.48.51,2.54,2.54,0,0,1-1.27-.29,2.11,2.11,0,0,1-.78-.84,4.33,4.33,0,0,1-.43-1.33A11.77,11.77,0,0,1,153.22,35.76Zm10.37-6.15a27.66,27.66,0,0,0,.29,4,13.65,13.65,0,0,0,.77,3,4.76,4.76,0,0,0,1.19,1.82,2.3,2.3,0,0,0,1.6.62,2.52,2.52,0,0,0,2-1,6.47,6.47,0,0,0,1.21-2.72,5.69,5.69,0,0,1-1.93-.8,6.78,6.78,0,0,1-1.63-1.44,7.76,7.76,0,0,1-1.13-2,7.21,7.21,0,0,1-.41-2.46,6.11,6.11,0,0,1,.27-1.91,4.3,4.3,0,0,1,.77-1.39,3.16,3.16,0,0,1,1.07-.84,3.13,3.13,0,0,1,1.31-.29,3.39,3.39,0,0,1,1.64.47A4.53,4.53,0,0,1,172.16,26a7.34,7.34,0,0,1,1.12,2.26,10.85,10.85,0,0,1,.43,3.19,11.9,11.9,0,0,1-.08,1.34,10.18,10.18,0,0,1-.23,1.29,4.71,4.71,0,0,0,1.69-.88,4.49,4.49,0,0,0,1.29-1.6l.22-.41.8.61-.22.41A5.67,5.67,0,0,1,173,35.35a8.26,8.26,0,0,1-.92,1.86,6.6,6.6,0,0,1-1.26,1.46,5.39,5.39,0,0,1-1.61,1,5.15,5.15,0,0,1-1.91.35,6,6,0,0,1-2.7-.62,5.66,5.66,0,0,1-2.1-2,11.63,11.63,0,0,1-1.39-3.69,27.36,27.36,0,0,1-.49-5.64,61.12,61.12,0,0,1,.43-7.91,28.16,28.16,0,0,1,1.13-5.33,8,8,0,0,1,1.62-3,2.67,2.67,0,0,1,1.9-1,1.2,1.2,0,0,1,1,.49A2.7,2.7,0,0,1,167.1,13a18.77,18.77,0,0,1-.15,2.22c-.1.84-.24,1.73-.41,2.68s-.37,1.94-.61,3-.48,2-.74,3.05-.53,2-.8,3S163.85,28.76,163.59,29.61Zm3.28-1.17a7.21,7.21,0,0,0,.31,2.13,6.67,6.67,0,0,0,.88,1.7,5.59,5.59,0,0,0,1.27,1.21,4.76,4.76,0,0,0,1.55.68A8.17,8.17,0,0,0,171,33c0-.41,0-.82,0-1.23a13.49,13.49,0,0,0-.21-2.5,9.19,9.19,0,0,0-.57-1.92,3.66,3.66,0,0,0-.82-1.23,1.44,1.44,0,0,0-1-.43,1.33,1.33,0,0,0-1.13.73A3.57,3.57,0,0,0,166.87,28.44Zm-1-15a1.85,1.85,0,0,0-.1-.65.34.34,0,0,0-.31-.23c-.15,0-.29.2-.43.6a11.72,11.72,0,0,0-.43,1.64c-.13.69-.26,1.49-.37,2.41s-.21,1.88-.3,2.91-.16,2.05-.21,3.12-.09,2.1-.1,3.09c.31-1.15.61-2.32.88-3.52s.51-2.38.7-3.51.37-2.2.49-3.21A22.92,22.92,0,0,0,165.84,13.48Z"/></g></g></svg>