<svg width="48" height="48" viewBox="0 0 48 48" fill="none" xmlns="http://www.w3.org/2000/svg">
<path fill-rule="evenodd" clip-rule="evenodd" d="M37.3963 33.3797C36.8231 34.9912 34.5622 36.3273 32.7566 36.7171C31.5201 36.9767 29.9086 37.1889 24.4762 34.9354C18.3757 32.4092 9.90038 23.4058 9.90038 17.4117C9.90038 14.3631 11.6593 10.81 14.7317 10.81C16.2114 10.81 16.5373 10.8386 17.0245 12.0079C17.5977 13.3844 18.9841 16.7738 19.1536 17.1219C19.8365 18.5467 18.4584 19.381 17.4585 20.624C17.1392 20.9983 16.778 21.4018 17.1818 22.0978C18.2199 23.8645 19.5117 25.4697 21.0157 26.8615C22.6299 28.3423 24.511 29.5026 26.5586 30.2809C26.8303 30.4107 27.135 30.4552 27.4324 30.4085C27.7299 30.3617 28.0062 30.2259 28.225 30.019C28.8835 29.2366 29.5004 28.4199 30.0732 27.5728C30.2408 27.2912 30.5074 27.0823 30.821 26.9871C31.1345 26.8918 31.4723 26.9171 31.7682 27.0578C32.1916 27.2044 37.5691 29.7038 37.7959 30.1034C37.979 31.2112 37.8394 32.3482 37.3938 33.3789M23.6418 2.51818e-06H23.6303C19.2749 -0.00200846 15.0038 1.20046 11.289 3.47419C7.57417 5.74792 4.56041 9.00446 2.58078 12.884C0.601148 16.7635 -0.267243 21.1147 0.0715948 25.4569C0.410433 29.7991 1.94329 33.9629 4.50076 37.4884L1.55284 46.274L10.6365 43.3688C13.7128 45.3959 17.2203 46.676 20.8792 47.1065C24.538 47.537 28.2468 47.1059 31.7096 45.8482C35.1723 44.5905 38.2931 42.5409 40.8228 39.8626C43.3524 37.1843 45.2209 33.9517 46.2791 30.4229C47.3374 26.894 47.556 23.1664 46.9175 19.5381C46.279 15.9097 44.8012 12.481 42.6019 9.52534C40.4027 6.56971 37.5429 4.16926 34.2509 2.51538C30.9589 0.861505 27.3259 0.000134656 23.6418 2.51818e-06Z" fill="#F7BD58"/>
</svg>
