<svg width="58" height="58" viewBox="0 0 58 58" fill="none" xmlns="http://www.w3.org/2000/svg">
<circle cx="28.5" cy="28.5" r="22.5" fill="white"/>
<path fill-rule="evenodd" clip-rule="evenodd" d="M45.8031 40.8972C45.1031 42.8652 42.3421 44.4969 40.1371 44.9729C38.6271 45.2899 36.6591 45.5491 30.0251 42.7971C22.5751 39.7121 12.2251 28.7172 12.2251 21.3972C12.2251 17.6742 14.3731 13.3352 18.1251 13.3352C19.9321 13.3352 20.3301 13.3701 20.9251 14.7981C21.6251 16.4791 23.3181 20.6182 23.5251 21.0432C24.3591 22.7832 22.6761 23.8021 21.4551 25.3201C21.0651 25.7771 20.6241 26.2699 21.1171 27.1199C22.3849 29.2774 23.9624 31.2376 25.7991 32.9373C27.7704 34.7456 30.0675 36.1626 32.5681 37.113C32.8999 37.2715 33.272 37.3259 33.6352 37.2688C33.9985 37.2117 34.3359 37.0459 34.6031 36.7932C35.4072 35.8377 36.1606 34.8404 36.8601 33.8059C37.0648 33.462 37.3904 33.2069 37.7733 33.0906C38.1562 32.9742 38.5687 33.0051 38.9301 33.177C39.4471 33.356 46.0141 36.4082 46.2911 36.8962C46.5146 38.2491 46.3442 39.6376 45.8001 40.8962M29.0061 0.134036H28.9921C23.6733 0.13158 18.4573 1.60004 13.9208 4.37671C9.38433 7.15339 5.70393 11.1303 3.28641 15.8679C0.868886 20.6056 -0.191591 25.9192 0.222197 31.2219C0.635985 36.5246 2.50791 41.6095 5.63109 45.9148L2.0311 56.6438L13.1241 53.096C16.8808 55.5715 21.1642 57.1347 25.6324 57.6604C30.1005 58.1861 34.6298 57.6597 38.8585 56.1238C43.0872 54.5878 46.8982 52.0849 49.9875 48.8142C53.0767 45.5435 55.3585 41.5958 56.6508 37.2864C57.9431 32.977 58.21 28.4248 57.4303 23.9939C56.6506 19.563 54.8459 15.3758 52.1602 11.7664C49.4744 8.15695 45.9821 5.22553 41.9619 3.20581C37.9417 1.1861 33.5051 0.134198 29.0061 0.134036Z" fill="#F7BD58"/>
</svg>
