<svg width="197" height="43" viewBox="0 0 197 43" fill="none" xmlns="http://www.w3.org/2000/svg">
<g clip-path="url(#clip0_391_10)">
<path d="M31.6815 22.5391H22.3613C22.1564 22.5391 21.9599 22.4581 21.815 22.3139C21.6702 22.1697 21.5888 21.9741 21.5888 21.7701C21.5888 21.5662 21.6702 21.3706 21.815 21.2263C21.9599 21.0821 22.1564 21.0011 22.3613 21.0011H31.6815C31.8864 21.0011 32.0829 20.9201 32.2277 20.7759C32.3726 20.6317 32.454 20.4361 32.454 20.2321V15.6161C32.454 15.4122 32.3726 15.2166 32.2277 15.0723C32.0829 14.9281 31.8864 14.8471 31.6815 14.8471H2.3185C2.11362 14.8471 1.91713 14.9281 1.77226 15.0723C1.62739 15.2166 1.546 15.4122 1.546 15.6161V20.2311C1.546 20.4351 1.62739 20.6307 1.77226 20.7749C1.91713 20.9191 2.11362 21.0001 2.3185 21.0001H10.9154C11.1203 21.0001 11.3168 21.0811 11.4617 21.2253C11.6066 21.3696 11.6879 21.5652 11.6879 21.7691C11.6879 21.9731 11.6066 22.1687 11.4617 22.3129C11.3168 22.4571 11.1203 22.5381 10.9154 22.5381H2.3185C1.70402 22.5373 1.11491 22.294 0.680308 21.8616C0.245707 21.4291 0.00106307 20.8428 0 20.2311V15.6161C0.000797398 15.0042 0.245323 14.4176 0.679954 13.985C1.11458 13.5523 1.70384 13.3089 2.3185 13.3081H31.6815C32.2969 13.3078 32.8871 13.5508 33.3226 13.9836C33.7581 14.4163 34.0032 15.0035 34.004 15.6161V20.2311C34.0032 20.8437 33.7581 21.4309 33.3226 21.8636C32.8871 22.2964 32.2969 22.5394 31.6815 22.5391Z" fill="black"/>
<path d="M28.5916 41H5.40957C4.79491 40.9992 4.20565 40.7558 3.77102 40.3231C3.33639 39.8905 3.09186 39.3039 3.09106 38.692V21.769C3.09106 21.565 3.17245 21.3695 3.31732 21.2252C3.4622 21.081 3.65868 21 3.86356 21H15.4551C15.6599 21 15.8564 21.081 16.0013 21.2252C16.1462 21.3695 16.2276 21.565 16.2276 21.769C16.2276 21.973 16.1462 22.1685 16.0013 22.3128C15.8564 22.457 15.6599 22.538 15.4551 22.538H4.63606V38.692C4.63606 38.896 4.71745 39.0915 4.86232 39.2358C5.00719 39.38 5.20368 39.461 5.40856 39.461H28.5916C28.7964 39.461 28.9929 39.38 29.1378 39.2358C29.2827 39.0915 29.3641 38.896 29.3641 38.692V22.538H18.5461C18.3412 22.538 18.1447 22.457 17.9998 22.3128C17.855 22.1685 17.7736 21.973 17.7736 21.769C17.7736 21.565 17.855 21.3695 17.9998 21.2252C18.1447 21.081 18.3412 21 18.5461 21H30.1366C30.3414 21 30.5379 21.081 30.6828 21.2252C30.8277 21.3695 30.9091 21.565 30.9091 21.769V38.692C30.9083 39.3037 30.6639 39.8901 30.2295 40.3228C29.7951 40.7554 29.206 40.9989 28.5916 41Z" fill="black"/>
<path d="M20.8646 5.615C20.0985 5.61571 19.3446 5.80555 18.6704 6.1675C17.9961 6.52945 17.4226 7.05223 17.0011 7.689C16.5585 7.02407 15.9503 6.48475 15.2358 6.12368C14.5213 5.76261 13.725 5.59214 12.9246 5.6289C12.1241 5.66566 11.347 5.90841 10.6689 6.33343C9.99088 6.75845 9.43513 7.35124 9.05592 8.0539C8.67672 8.75657 8.48703 9.54512 8.50536 10.3426C8.5237 11.14 8.74943 11.9191 9.16053 12.6037C9.57163 13.2884 10.154 13.8552 10.8509 14.2489C11.5478 14.6426 12.3353 14.8497 13.1366 14.85H14.6786V40.231C14.6786 40.435 14.76 40.6306 14.9048 40.7748C15.0497 40.919 15.2462 41 15.4511 41H18.5461C18.751 41 18.9474 40.919 19.0923 40.7748C19.2372 40.6306 19.3186 40.435 19.3186 40.231V14.85H20.8636C22.0933 14.85 23.2726 14.3637 24.1421 13.4982C25.0116 12.6326 25.5001 11.4586 25.5001 10.2345C25.5001 9.01039 25.0116 7.83642 24.1421 6.97085C23.2726 6.10527 22.0933 5.619 20.8636 5.619L20.8646 5.615ZM10.0456 10.231C10.0456 9.41493 10.3712 8.63228 10.9509 8.05523C11.5306 7.47818 12.3168 7.154 13.1366 7.154C13.9564 7.154 14.7426 7.47818 15.3222 8.05523C15.9019 8.63228 16.2276 9.41493 16.2276 10.231V13.308H13.1366C12.317 13.3072 11.5313 12.9828 10.9518 12.4059C10.3723 11.829 10.0464 11.0468 10.0456 10.231ZM17.7726 39.462H16.2276V14.85H17.7726V39.462ZM20.8636 13.308H17.7736V10.231C17.7736 9.62243 17.9549 9.02752 18.2945 8.52151C18.6342 8.0155 19.1169 7.62111 19.6817 7.38822C20.2465 7.15533 20.868 7.0944 21.4676 7.21312C22.0672 7.33185 22.618 7.62491 23.0503 8.05523C23.4825 8.48556 23.7769 9.03383 23.8962 9.63071C24.0155 10.2276 23.9542 10.8463 23.7203 11.4085C23.4863 11.9708 23.0902 12.4513 22.5819 12.7894C22.0735 13.1275 21.4759 13.308 20.8646 13.308H20.8636ZM28.4409 3.462L27.8191 1L27.2013 3.462L24.7241 4.077L27.1973 4.692L27.8191 7.15L28.4409 4.692L30.9141 4.077L28.4409 3.462ZM30.9101 7.15L30.6007 8.381L29.3641 8.689L30.6007 8.997L30.9101 10.228L31.2195 8.997L32.4561 8.689L31.2195 8.381L30.9101 7.15ZM32.7605 2.231L32.4591 1L32.1497 2.231L30.9131 2.539L32.1497 2.847L32.4591 4.077L32.7605 2.85L33.9971 2.542L32.7605 2.231Z" fill="#F7BD58"/>
</g>
<path d="M49.1758 22.1133C49.1758 21.1628 49.2604 20.1602 49.4297 19.1055C49.599 18.0378 49.8594 16.9896 50.2109 15.9609C50.5755 14.9323 51.0247 13.9492 51.5586 13.0117C52.1055 12.0742 52.75 11.2539 53.4922 10.5508C54.2344 9.83464 55.0742 9.26823 56.0117 8.85156C56.9622 8.42188 58.0169 8.20703 59.1758 8.20703C60.3607 8.20703 61.4414 8.40885 62.418 8.8125C63.3945 9.20312 64.2669 9.75651 65.0352 10.4727C65.8034 11.1758 66.474 12.0156 67.0469 12.9922C67.6328 13.9688 68.1146 15.0365 68.4922 16.1953C68.8698 17.3542 69.1497 18.5846 69.332 19.8867C69.5273 21.1758 69.625 22.4909 69.625 23.832C69.625 25.3164 69.5013 26.7943 69.2539 28.2656C69.0195 29.737 68.6615 31.1497 68.1797 32.5039C67.7109 33.8451 67.1185 35.0951 66.4023 36.2539C65.6862 37.4128 64.8529 38.4154 63.9023 39.2617C62.9518 40.1081 61.8776 40.7721 60.6797 41.2539C59.4948 41.7487 58.1927 41.9961 56.7734 41.9961C55.4453 41.9961 54.2018 41.7878 53.043 41.3711C51.8841 40.9674 50.8229 40.3945 49.8594 39.6523C48.8958 38.8971 48.0365 38.0052 47.2812 36.9766C46.526 35.9349 45.888 34.7956 45.3672 33.5586C44.8594 32.3086 44.4688 30.9805 44.1953 29.5742C43.9219 28.1549 43.7852 26.6966 43.7852 25.1992C43.7852 23.7279 43.9154 22.3607 44.1758 21.0977C44.4492 19.8346 44.8073 18.6693 45.25 17.6016C45.6927 16.5339 46.194 15.5638 46.7539 14.6914C47.3268 13.819 47.9193 13.0378 48.5312 12.3477C49.1432 11.6576 49.7487 11.0586 50.3477 10.5508C50.9466 10.043 51.5 9.61979 52.0078 9.28125L52.8477 9.84766C51.9492 10.5768 51.1354 11.4753 50.4062 12.543C49.6901 13.6107 49.0716 14.8086 48.5508 16.1367C48.043 17.4648 47.6523 18.8971 47.3789 20.4336C47.1055 21.957 46.9688 23.5456 46.9688 25.1992C46.9688 27.9987 47.2422 30.3945 47.7891 32.3867C48.349 34.3789 49.0846 36.013 49.9961 37.2891C50.9076 38.5651 51.9492 39.5026 53.1211 40.1016C54.306 40.7005 55.5234 41 56.7734 41C58.1276 41 59.3841 40.7005 60.543 40.1016C61.7018 39.5026 62.7044 38.5651 63.5508 37.2891C64.4102 36.013 65.0807 34.3789 65.5625 32.3867C66.0573 30.3945 66.3047 27.9987 66.3047 25.1992C66.3047 22.5169 66.0964 20.1862 65.6797 18.207C65.276 16.2279 64.7161 14.5938 64 13.3047C63.2969 12.0026 62.4701 11.0326 61.5195 10.3945C60.569 9.75651 59.5599 9.4375 58.4922 9.4375C57.6589 9.4375 56.9102 9.6263 56.2461 10.0039C55.582 10.3815 54.9961 10.9023 54.4883 11.5664C53.9935 12.2174 53.5638 12.9857 53.1992 13.8711C52.8346 14.7435 52.5352 15.681 52.3008 16.6836C52.0794 17.6862 51.9167 18.7214 51.8125 19.7891C51.7083 20.8438 51.6562 21.8854 51.6562 22.9141C51.6562 24.138 51.6953 25.1732 51.7734 26.0195C51.8516 26.8529 51.9427 27.5299 52.0469 28.0508C52.1641 28.6628 52.3008 29.151 52.457 29.5156L51.3047 29.8086C51.1224 29.6003 50.9076 29.3073 50.6602 28.9297C50.4258 28.5521 50.1979 28.0573 49.9766 27.4453C49.7552 26.8333 49.5664 26.0911 49.4102 25.2188C49.2539 24.3464 49.1758 23.3112 49.1758 22.1133ZM79.4883 26.3516C79.1237 26.3516 78.7135 26.5143 78.2578 26.8398C77.8151 27.1654 77.3659 27.5885 76.9102 28.1094C76.4544 28.6172 76.0117 29.1901 75.582 29.8281C75.1654 30.4661 74.8008 31.0977 74.4883 31.7227C74.4492 32.8685 74.4102 34.1185 74.3711 35.4727C74.3451 36.8268 74.332 38.2721 74.332 39.8086C74.332 40.0039 74.2409 40.1797 74.0586 40.3359C73.8893 40.4792 73.6875 40.6029 73.4531 40.707C73.2188 40.7982 72.9779 40.8698 72.7305 40.9219C72.4831 40.974 72.2812 41 72.125 41C71.9297 41 71.7474 40.9414 71.5781 40.8242C71.4089 40.707 71.3242 40.4466 71.3242 40.043C71.3242 39.8477 71.3438 39.6068 71.3828 39.3203C71.4219 39.0208 71.474 38.7018 71.5391 38.3633C71.5911 38.0247 71.6562 37.6797 71.7344 37.3281C71.7995 36.9635 71.8646 36.625 71.9297 36.3125V26.7617C71.9297 26.5013 71.9362 26.2995 71.9492 26.1562C71.9492 26 71.9688 25.8828 72.0078 25.8047C72.0859 25.6224 72.2227 25.4792 72.418 25.375C72.6133 25.2708 72.8216 25.1927 73.043 25.1406C73.2643 25.0755 73.4792 25.0365 73.6875 25.0234C73.8958 25.0104 74.0586 25.0039 74.1758 25.0039C74.3971 25.0039 74.5469 25.0625 74.625 25.1797C74.7161 25.2969 74.7617 25.5052 74.7617 25.8047C74.7617 25.7656 74.7292 26.0846 74.6641 26.7617C74.612 27.4388 74.5664 28.4089 74.5273 29.6719C74.918 29.0599 75.3411 28.474 75.7969 27.9141C76.2526 27.3542 76.7279 26.8594 77.2227 26.4297C77.7174 26 78.2253 25.6549 78.7461 25.3945C79.2799 25.1341 79.8203 25.0039 80.3672 25.0039C81.3438 25.0039 82.0599 25.3164 82.5156 25.9414C82.9714 26.5534 83.1992 27.3867 83.1992 28.4414C83.1992 29.1055 83.1536 29.8477 83.0625 30.668C82.9844 31.4753 82.8867 32.3021 82.7695 33.1484C82.6654 33.9818 82.5677 34.8021 82.4766 35.6094C82.3984 36.4036 82.3594 37.1328 82.3594 37.7969C82.3594 38.6562 82.6263 39.0859 83.1602 39.0859C83.3294 39.0859 83.5247 39.0013 83.7461 38.832C83.9805 38.6497 84.2669 38.3177 84.6055 37.8359C84.957 37.3542 85.3737 36.6966 85.8555 35.8633C86.3372 35.0169 86.9102 33.9297 87.5742 32.6016L87.7695 32.1914L88.5703 32.7969L88.375 33.207C87.5938 34.7695 86.8971 36.0521 86.2852 37.0547C85.6862 38.0573 85.1393 38.8516 84.6445 39.4375C84.1497 40.0234 83.6875 40.4336 83.2578 40.668C82.8281 40.8893 82.3984 41 81.9688 41C81.6953 41 81.4219 40.9609 81.1484 40.8828C80.875 40.8047 80.6341 40.668 80.4258 40.4727C80.2174 40.2773 80.0482 40.0169 79.918 39.6914C79.7878 39.3529 79.7227 38.9232 79.7227 38.4023C79.7227 37.6211 79.7747 36.7422 79.8789 35.7656C79.9831 34.7891 80.1003 33.8125 80.2305 32.8359C80.3607 31.8594 80.4779 30.9414 80.582 30.082C80.6862 29.2096 80.7383 28.5 80.7383 27.9531C80.7383 27.4714 80.6341 27.0872 80.4258 26.8008C80.2174 26.5013 79.9049 26.3516 79.4883 26.3516ZM93.5508 38.793C94.0065 38.793 94.4688 38.6758 94.9375 38.4414C95.4193 38.207 95.901 37.8424 96.3828 37.3477C96.8776 36.8529 97.3854 36.2148 97.9062 35.4336C98.4271 34.6393 98.9609 33.6953 99.5078 32.6016L99.7031 32.1914L100.504 32.7969L100.309 33.207C99.6055 34.6003 98.9023 35.7917 98.1992 36.7812C97.5091 37.7708 96.8255 38.5781 96.1484 39.2031C95.4844 39.8281 94.8268 40.2839 94.1758 40.5703C93.5247 40.8568 92.8997 41 92.3008 41C91.4544 41 90.6992 40.8242 90.0352 40.4727C89.3711 40.1211 88.8112 39.6458 88.3555 39.0469C87.8997 38.4349 87.5547 37.7318 87.3203 36.9375C87.0729 36.1302 86.9492 35.2839 86.9492 34.3984C86.9492 32.9922 87.1445 31.7161 87.5352 30.5703C87.9128 29.4115 88.4206 28.4219 89.0586 27.6016C89.7096 26.7812 90.4453 26.1432 91.2656 25.6875C92.0859 25.2318 92.9388 25.0039 93.8242 25.0039C94.7227 25.0039 95.4062 25.2318 95.875 25.6875C96.3568 26.1432 96.5977 26.7161 96.5977 27.4062C96.5977 28.0703 96.4089 28.6953 96.0312 29.2812C95.6536 29.8542 95.1393 30.4206 94.4883 30.9805C93.8503 31.5273 93.1081 32.0742 92.2617 32.6211C91.4154 33.1549 90.5234 33.7083 89.5859 34.2812C89.6771 34.9583 89.8333 35.5768 90.0547 36.1367C90.276 36.6836 90.556 37.1589 90.8945 37.5625C91.2331 37.9531 91.6237 38.2591 92.0664 38.4805C92.5091 38.6888 93.0039 38.793 93.5508 38.793ZM94.1562 27.9922C94.1562 27.4714 94.013 27.0612 93.7266 26.7617C93.4531 26.4622 93.1146 26.3125 92.7109 26.3125C92.3724 26.3125 92.0143 26.4362 91.6367 26.6836C91.2591 26.918 90.9141 27.3021 90.6016 27.8359C90.2891 28.3568 90.0286 29.0273 89.8203 29.8477C89.612 30.668 89.5078 31.6641 89.5078 32.8359V33.2852C89.9505 33.0508 90.4388 32.7448 90.9727 32.3672C91.5195 31.9766 92.0273 31.5469 92.4961 31.0781C92.9648 30.6094 93.3555 30.1146 93.668 29.5938C93.9935 29.0599 94.1562 28.526 94.1562 27.9922ZM137.613 42.1914V27.0742C135.296 26.9701 133.062 26.8464 130.914 26.7031C128.766 26.5469 126.793 26.4036 124.996 26.2734V30.6484C124.996 32.4062 124.827 33.9362 124.488 35.2383C124.163 36.5273 123.642 37.6016 122.926 38.4609C122.21 39.3203 121.298 39.9583 120.191 40.375C119.085 40.7917 117.757 41 116.207 41C115.113 41 114.091 40.8372 113.141 40.5117C112.19 40.1732 111.363 39.6979 110.66 39.0859C109.957 38.474 109.404 37.7383 109 36.8789C108.609 36.0195 108.414 35.0625 108.414 34.0078C108.414 32.862 108.674 31.7487 109.195 30.668C109.716 29.5742 110.478 28.6107 111.48 27.7773C112.496 26.944 113.746 26.2734 115.23 25.7656C116.728 25.2578 118.453 25.0039 120.406 25.0039H122.008V21.7227C122.008 20.681 122.027 19.6849 122.066 18.7344C122.118 17.7708 122.242 16.8398 122.438 15.9414C122.633 15.043 122.932 14.1706 123.336 13.3242C123.74 12.4779 124.293 11.638 124.996 10.8047C124.28 11.3385 123.499 11.6966 122.652 11.8789C121.819 12.0612 120.966 12.1523 120.094 12.1523C119.495 12.1523 118.889 12.1263 118.277 12.0742C117.678 12.0091 117.086 11.944 116.5 11.8789C115.914 11.8138 115.341 11.7552 114.781 11.7031C114.234 11.638 113.707 11.6055 113.199 11.6055C112.652 11.6055 112.177 11.6771 111.773 11.8203C111.37 11.9505 111.038 12.1393 110.777 12.3867C110.517 12.6211 110.322 12.8945 110.191 13.207C110.061 13.5195 109.996 13.8516 109.996 14.2031C109.996 14.5547 110.081 14.8997 110.25 15.2383C110.419 15.5638 110.667 15.8633 110.992 16.1367C111.318 16.3971 111.715 16.6055 112.184 16.7617C112.665 16.918 113.206 16.9961 113.805 16.9961C114.352 16.9961 114.846 16.944 115.289 16.8398C115.732 16.7357 116.109 16.6185 116.422 16.4883C116.786 16.3451 117.112 16.1693 117.398 15.9609L117.809 16.8008C117.457 17.0352 117.066 17.237 116.637 17.4062C116.272 17.5495 115.842 17.6862 115.348 17.8164C114.866 17.9336 114.352 17.9922 113.805 17.9922C113.049 17.9922 112.366 17.888 111.754 17.6797C111.142 17.4583 110.615 17.1654 110.172 16.8008C109.742 16.4232 109.404 15.9805 109.156 15.4727C108.922 14.9518 108.805 14.3919 108.805 13.793C108.805 13.0898 108.935 12.4714 109.195 11.9375C109.456 11.3906 109.807 10.9284 110.25 10.5508C110.706 10.1732 111.233 9.88672 111.832 9.69141C112.444 9.49609 113.102 9.39844 113.805 9.39844C114.521 9.39844 115.23 9.44401 115.934 9.53516C116.637 9.6263 117.333 9.73047 118.023 9.84766C118.727 9.95182 119.417 10.0495 120.094 10.1406C120.784 10.2318 121.461 10.2773 122.125 10.2773C122.789 10.2773 123.44 10.2188 124.078 10.1016C124.716 9.97135 125.361 9.73698 126.012 9.39844L126.812 10.0039C126.513 10.3945 126.253 10.8307 126.031 11.3125C125.81 11.7943 125.621 12.3802 125.465 13.0703C125.309 13.7604 125.191 14.5872 125.113 15.5508C125.035 16.5013 124.996 17.6536 124.996 19.0078V25.0039H137.613V19.3984C137.613 18.1354 137.646 17.0156 137.711 16.0391C137.776 15.0495 137.867 14.1706 137.984 13.4023C138.115 12.6211 138.271 11.931 138.453 11.332C138.635 10.7201 138.844 10.1667 139.078 9.67188C139.326 9.17708 139.592 8.71484 139.879 8.28516C140.165 7.85547 140.471 7.42578 140.797 6.99609L141.598 7.60156C141.402 8.00521 141.227 8.44792 141.07 8.92969C140.927 9.39844 140.803 10.0104 140.699 10.7656C140.608 11.5078 140.536 12.4453 140.484 13.5781C140.432 14.6979 140.406 16.1042 140.406 17.7969V25.0039H143.805L143.199 27.1914C142.743 27.1914 142.275 27.1914 141.793 27.1914C141.324 27.1914 140.862 27.1784 140.406 27.1523V41.8008L137.613 42.1914ZM116.598 40.0039C117.496 40.0039 118.284 39.8802 118.961 39.6328C119.638 39.3854 120.198 38.9753 120.641 38.4023C121.096 37.8294 121.435 37.0742 121.656 36.1367C121.891 35.1992 122.008 34.0339 122.008 32.6406V26.0781C121.604 26.0521 121.207 26.0326 120.816 26.0195C120.439 26.0065 120.1 26 119.801 26C118.668 26 117.665 26.1237 116.793 26.3711C115.921 26.6055 115.159 26.9245 114.508 27.3281C113.857 27.7318 113.303 28.2005 112.848 28.7344C112.405 29.2682 112.047 29.8346 111.773 30.4336C111.5 31.0195 111.305 31.625 111.188 32.25C111.07 32.862 111.012 33.4479 111.012 34.0078C111.012 35.1016 111.181 36.0326 111.52 36.8008C111.858 37.556 112.294 38.1745 112.828 38.6562C113.362 39.125 113.961 39.4701 114.625 39.6914C115.289 39.8997 115.947 40.0039 116.598 40.0039ZM153.219 36.7617C153.154 36.8659 153.056 37.0482 152.926 37.3086C152.809 37.556 152.652 37.8359 152.457 38.1484C152.275 38.4609 152.053 38.7865 151.793 39.125C151.546 39.4635 151.259 39.7695 150.934 40.043C150.608 40.3164 150.243 40.5443 149.84 40.7266C149.449 40.9089 149.013 41 148.531 41C148.154 41 147.763 40.9219 147.359 40.7656C146.956 40.6094 146.578 40.3229 146.227 39.9062C145.888 39.4896 145.608 38.9232 145.387 38.207C145.165 37.4779 145.055 36.5404 145.055 35.3945C145.055 34.3008 145.094 33.207 145.172 32.1133C145.25 31.0065 145.341 29.9974 145.445 29.0859C145.562 28.1745 145.673 27.4128 145.777 26.8008C145.882 26.1888 145.96 25.8177 146.012 25.6875C146.064 25.5703 146.168 25.4661 146.324 25.375C146.48 25.2839 146.656 25.2122 146.852 25.1602C147.06 25.1081 147.268 25.069 147.477 25.043C147.698 25.0169 147.887 25.0039 148.043 25.0039C148.251 25.0039 148.414 25.056 148.531 25.1602C148.661 25.2643 148.727 25.4401 148.727 25.6875C148.727 25.8047 148.701 26.0391 148.648 26.3906C148.609 26.7292 148.557 27.1458 148.492 27.6406C148.427 28.1354 148.355 28.6823 148.277 29.2812C148.212 29.8802 148.147 30.4922 148.082 31.1172C148.017 31.7292 147.958 32.3411 147.906 32.9531C147.867 33.5521 147.848 34.099 147.848 34.5938C147.848 36.013 147.997 37.0677 148.297 37.7578C148.609 38.4479 149.117 38.793 149.82 38.793C150.419 38.793 151.025 38.3568 151.637 37.4844C152.262 36.612 152.802 35.3424 153.258 33.6758C153.323 32.9727 153.382 32.224 153.434 31.4297C153.499 30.6224 153.557 29.8607 153.609 29.1445C153.661 28.4154 153.707 27.7643 153.746 27.1914C153.798 26.6185 153.844 26.2083 153.883 25.9609C153.922 25.7786 154.026 25.6289 154.195 25.5117C154.365 25.3815 154.553 25.2839 154.762 25.2188C154.983 25.1406 155.191 25.0885 155.387 25.0625C155.595 25.0234 155.751 25.0039 155.855 25.0039C156.077 25.0039 156.227 25.056 156.305 25.1602C156.396 25.2513 156.441 25.401 156.441 25.6094C156.441 25.7917 156.422 26.1432 156.383 26.6641C156.357 27.1719 156.318 27.7708 156.266 28.4609C156.227 29.138 156.181 29.8672 156.129 30.6484C156.077 31.4297 156.025 32.1849 155.973 32.9141C155.934 33.6302 155.895 34.2812 155.855 34.8672C155.829 35.4531 155.816 35.8958 155.816 36.1953C155.816 37.0807 155.862 37.7773 155.953 38.2852C156.057 38.793 156.279 39.0469 156.617 39.0469C156.865 39.0469 157.132 38.8906 157.418 38.5781C157.717 38.2526 158.036 37.8034 158.375 37.2305C158.727 36.6576 159.104 35.9805 159.508 35.1992C159.911 34.4049 160.348 33.5391 160.816 32.6016L161.012 32.1914L161.812 32.7969L161.617 33.207C160.992 34.444 160.439 35.5508 159.957 36.5273C159.488 37.4909 159.039 38.3047 158.609 38.9688C158.18 39.6328 157.743 40.1406 157.301 40.4922C156.858 40.8307 156.363 41 155.816 41C155.309 41 154.885 40.9023 154.547 40.707C154.221 40.5117 153.961 40.2318 153.766 39.8672C153.57 39.5026 153.427 39.0599 153.336 38.5391C153.258 38.0182 153.219 37.4258 153.219 36.7617ZM163.59 30.6094C163.603 32.1068 163.701 33.4414 163.883 34.6133C164.065 35.7721 164.319 36.7552 164.645 37.5625C164.97 38.3568 165.367 38.9622 165.836 39.3789C166.305 39.7956 166.839 40.0039 167.438 40.0039C168.258 40.0039 168.935 39.6784 169.469 39.0273C170.016 38.3633 170.419 37.4583 170.68 36.3125C170.003 36.1693 169.358 35.9023 168.746 35.5117C168.134 35.1211 167.594 34.6393 167.125 34.0664C166.656 33.4805 166.279 32.8099 165.992 32.0547C165.719 31.2995 165.582 30.4792 165.582 29.5938C165.582 28.8646 165.673 28.2266 165.855 27.6797C166.051 27.1198 166.305 26.6576 166.617 26.293C166.93 25.9154 167.288 25.6354 167.691 25.4531C168.108 25.2578 168.544 25.1602 169 25.1602C169.534 25.1602 170.081 25.3164 170.641 25.6289C171.201 25.9284 171.708 26.3841 172.164 26.9961C172.62 27.5951 172.991 28.3503 173.277 29.2617C173.564 30.1732 173.707 31.2344 173.707 32.4453C173.707 32.901 173.681 33.3503 173.629 33.793C173.577 34.2357 173.499 34.6654 173.395 35.082C174.02 34.8997 174.586 34.6068 175.094 34.2031C175.615 33.7995 176.044 33.2656 176.383 32.6016L176.598 32.1914L177.398 32.7969L177.184 33.207C176.741 34.0924 176.148 34.8021 175.406 35.3359C174.677 35.8568 173.883 36.1953 173.023 36.3516C172.789 37.0156 172.483 37.6341 172.105 38.207C171.741 38.7669 171.318 39.2552 170.836 39.6719C170.367 40.0885 169.833 40.4141 169.234 40.6484C168.648 40.8828 168.01 41 167.32 41C166.344 41 165.445 40.7917 164.625 40.375C163.818 39.9583 163.115 39.2812 162.516 38.3438C161.93 37.4062 161.467 36.1758 161.129 34.6523C160.803 33.1159 160.641 31.2344 160.641 29.0078C160.641 25.9089 160.784 23.2721 161.07 21.0977C161.357 18.9102 161.734 17.1328 162.203 15.7656C162.672 14.3854 163.212 13.3828 163.824 12.7578C164.436 12.1198 165.068 11.8008 165.719 11.8008C166.122 11.8008 166.454 11.9635 166.715 12.2891C166.975 12.6016 167.105 13.1745 167.105 14.0078C167.105 14.6589 167.053 15.401 166.949 16.2344C166.845 17.0677 166.708 17.9596 166.539 18.9102C166.37 19.8607 166.168 20.8503 165.934 21.8789C165.699 22.8945 165.452 23.9102 165.191 24.9258C164.931 25.9284 164.664 26.918 164.391 27.8945C164.117 28.8581 163.85 29.763 163.59 30.6094ZM166.871 29.4375C166.871 30.2057 166.975 30.9154 167.184 31.5664C167.405 32.2044 167.698 32.7708 168.062 33.2656C168.427 33.7474 168.85 34.151 169.332 34.4766C169.814 34.8021 170.328 35.0299 170.875 35.1602C170.94 34.7956 170.979 34.418 170.992 34.0273C171.018 33.6237 171.031 33.2135 171.031 32.7969C171.031 31.8724 170.96 31.0391 170.816 30.2969C170.673 29.5417 170.484 28.9036 170.25 28.3828C170.016 27.849 169.742 27.4388 169.43 27.1523C169.117 26.8659 168.798 26.7227 168.473 26.7227C168.03 26.7227 167.652 26.9635 167.34 27.4453C167.027 27.9141 166.871 28.5781 166.871 29.4375ZM165.836 14.4766C165.836 14.2031 165.803 13.9883 165.738 13.832C165.673 13.6758 165.569 13.5977 165.426 13.5977C165.283 13.5977 165.139 13.7995 164.996 14.2031C164.853 14.6068 164.71 15.1536 164.566 15.8438C164.436 16.5339 164.312 17.3346 164.195 18.2461C164.091 19.1576 163.993 20.1276 163.902 21.1562C163.811 22.1719 163.74 23.2135 163.688 24.2812C163.635 25.349 163.603 26.3776 163.59 27.3672C163.902 26.2214 164.195 25.0495 164.469 23.8516C164.742 22.6406 164.977 21.4688 165.172 20.3359C165.38 19.2031 165.543 18.1354 165.66 17.1328C165.777 16.1172 165.836 15.2318 165.836 14.4766Z" fill="black"/>
<defs>
<clipPath id="clip0_391_10">
<rect width="34" height="40" fill="white" transform="translate(0 1)"/>
</clipPath>
</defs>
</svg>
